<?xml version="1.0" encoding="utf-8"?>
<!-- Generator: Adobe Illustrator 22.1.0, SVG Export Plug-In . SVG Version: 6.00 Build 0)  -->
<svg version="1.1" id="Layer_1" xmlns="http://www.w3.org/2000/svg" xmlns:xlink="http://www.w3.org/1999/xlink" x="0px" y="0px"
	 viewBox="0 0 800 494" style="enable-background:new 0 0 800 494;" xml:space="preserve">
<style type="text/css">
	.st0{fill:#F1F2F2;}
	.st1{fill:none;stroke:#000000;stroke-width:3;stroke-miterlimit:10;}
	.st2{stroke:#000000;stroke-width:3;stroke-miterlimit:10;}
	.st3{fill:#F2F2F2;}
	.st4{fill:#F5EF67;stroke:#000000;stroke-width:3;stroke-miterlimit:10;}
	.st5{fill:#000001;}
	.st6{fill:#FFFFFF;}
</style>
<rect class="st0" width="800" height="494"/>
<g>
	<g>
		<g>
			<g>
				<path d="M29.7,474.6c-0.1-1.2-0.9-1.8-2.1-1.8c-1,0-1.9,0.3-1.9,1.5c0,1.1,1.4,1.2,2.7,1.5c1.4,0.3,2.7,0.8,2.7,2.5
					c0,1.8-1.8,2.6-3.3,2.6c-1.9,0-3.5-0.9-3.5-3h1.1c0,1.4,1.2,2.1,2.5,2.1c1,0,2.2-0.3,2.2-1.6c0-1.2-1.4-1.4-2.7-1.7
					s-2.7-0.7-2.7-2.3c0-1.7,1.5-2.5,3.1-2.5c1.8,0,3.1,0.8,3.2,2.7H29.7z"/>
				<path d="M35.1,474.4c2,0,3,1.4,3,3.2c0,1.8-1,3.2-3,3.2s-3-1.4-3-3.2C32,475.8,33.1,474.4,35.1,474.4z M35.1,479.9
					c1.1,0,1.9-0.8,1.9-2.3c0-1.5-0.9-2.4-1.9-2.4s-1.9,0.8-1.9,2.4C33.1,479.1,34,479.9,35.1,479.9z"/>
				<path d="M44.4,480.7h-1v-1h0c-0.4,0.8-1.1,1.1-2,1.1c-1.6,0-2.1-0.9-2.1-2.3v-4.1h1v4.2c0,0.8,0.5,1.2,1.3,1.2
					c1.2,0,1.8-0.8,1.8-1.9v-3.5h1V480.7z"/>
				<path d="M45.9,474.5h1v1.3h0c0.5-1,1.2-1.5,2.3-1.5v1.1c-1.6,0-2.2,0.9-2.2,2.5v2.8h-1V474.5z"/>
				<path d="M53.9,476.5c-0.2-0.8-0.7-1.2-1.5-1.2c-1.5,0-1.9,1.2-1.9,2.4c0,1.1,0.5,2.3,1.8,2.3c1,0,1.6-0.6,1.7-1.5h1
					c-0.2,1.5-1.2,2.4-2.7,2.4c-1.9,0-2.9-1.3-2.9-3.2c0-1.9,1-3.3,2.9-3.3c1.4,0,2.5,0.7,2.7,2.1H53.9z"/>
				<path d="M61.5,478.7c-0.3,1.4-1.3,2.1-2.7,2.1c-2,0-2.9-1.4-3-3.3c0-1.9,1.2-3.2,2.9-3.2c2.2,0,2.9,2.1,2.8,3.5h-4.6
					c0,1.1,0.6,2,1.9,2c0.8,0,1.4-0.4,1.6-1.2H61.5z M60.5,477c0-1-0.8-1.8-1.8-1.8c-1.1,0-1.7,0.8-1.8,1.8H60.5z"/>
				<path d="M64.2,475.8h-1.3v-1.3h1.3V475.8z M62.8,479.4h1.3v1.3h-1.3V479.4z"/>
				<path d="M76.3,477.6c0,2.2-1.2,3.3-3.4,3.3c-2.2,0-3.5-1-3.5-3.3v-5.5h1.1v5.5c0,1.5,0.9,2.3,2.4,2.3c1.4,0,2.2-0.8,2.2-2.3
					v-5.5h1.1V477.6z"/>
				<path d="M78.1,472.1h1.2l4.5,6.9h0v-6.9h1.1v8.6h-1.2l-4.5-6.9h0v6.9h-1.1V472.1z"/>
				<path d="M86.8,472.1h5.6v1h-4.5v2.7h3.9v1h-3.9v3.9h-1.1V472.1z"/>
				<path d="M99.7,474.7c-0.2-1.2-1.2-1.8-2.4-1.8c-2,0-2.9,1.7-2.9,3.5c0,2,0.9,3.6,2.9,3.6c1.5,0,2.4-1.1,2.5-2.5h1.1
					c-0.2,2.1-1.5,3.4-3.7,3.4c-2.7,0-4-2-4-4.5c0-2.5,1.4-4.5,4.1-4.5c1.8,0,3.3,1,3.5,2.8H99.7z"/>
				<path d="M108.3,474.7c-0.2-1.2-1.2-1.8-2.4-1.8c-2,0-2.9,1.7-2.9,3.5c0,2,0.9,3.6,2.9,3.6c1.5,0,2.4-1.1,2.5-2.5h1.1
					c-0.2,2.1-1.5,3.4-3.7,3.4c-2.7,0-4-2-4-4.5c0-2.5,1.4-4.5,4.1-4.5c1.8,0,3.3,1,3.5,2.8H108.3z"/>
				<path d="M117,474.7c-0.2-1.2-1.2-1.8-2.4-1.8c-2,0-2.9,1.7-2.9,3.5c0,2,0.9,3.6,2.9,3.6c1.5,0,2.4-1.1,2.5-2.5h1.1
					c-0.2,2.1-1.5,3.4-3.7,3.4c-2.7,0-4-2-4-4.5c0-2.5,1.4-4.5,4.1-4.5c1.8,0,3.3,1,3.5,2.8H117z"/>
				<path d="M119.7,479.4h1.3v1.2c0,0.9-0.4,1.6-1.3,1.9v-0.6c0.5-0.2,0.7-0.8,0.7-1.2h-0.7V479.4z"/>
				<path d="M126.3,472.1h5.9v1h-4.8v2.7h4.4v1h-4.4v3h4.8v1h-5.9V472.1z"/>
				<path d="M138.6,480.7h-1v-1h0c-0.4,0.8-1.1,1.1-2,1.1c-1.6,0-2.1-0.9-2.1-2.3v-4.1h1v4.2c0,0.8,0.5,1.2,1.3,1.2
					c1.2,0,1.8-0.8,1.8-1.9v-3.5h1V480.7z"/>
				<path d="M140.1,474.5h1v1.3h0c0.5-1,1.2-1.5,2.3-1.5v1.1c-1.6,0-2.2,0.9-2.2,2.5v2.8h-1V474.5z"/>
				<path d="M146.6,474.4c2,0,3,1.4,3,3.2c0,1.8-1,3.2-3,3.2s-3-1.4-3-3.2C143.6,475.8,144.6,474.4,146.6,474.4z M146.6,479.9
					c1.1,0,1.9-0.8,1.9-2.3c0-1.5-0.9-2.4-1.9-2.4s-1.9,0.8-1.9,2.4C144.7,479.1,145.5,479.9,146.6,479.9z"/>
				<path d="M150.9,474.5h1v0.8h0c0.3-0.7,1.1-1,2-1c1.9,0,2.9,1.5,2.9,3.3s-0.9,3.2-2.8,3.2c-0.6,0-1.5-0.2-2-1h0v3.2h-1V474.5z
					 M153.7,475.3c-1.4,0-1.9,1.2-1.9,2.3c0,1.2,0.6,2.4,2,2.4c1.4,0,1.9-1.2,1.9-2.4C155.7,476.4,155.1,475.3,153.7,475.3z"/>
				<path d="M163.2,478.7c-0.3,1.4-1.3,2.1-2.7,2.1c-2,0-2.9-1.4-3-3.3c0-1.9,1.2-3.2,2.9-3.2c2.2,0,2.9,2.1,2.8,3.5h-4.6
					c0,1.1,0.6,2,1.9,2c0.8,0,1.4-0.4,1.6-1.2H163.2z M162.2,477c0-1-0.8-1.8-1.8-1.8c-1.1,0-1.7,0.8-1.8,1.8H162.2z"/>
				<path d="M169.9,480.7c-0.2,0.1-0.4,0.2-0.7,0.2c-0.5,0-0.9-0.3-0.9-1c-0.6,0.7-1.3,1-2.2,1c-1.1,0-2.1-0.5-2.1-1.7
					c0-1.4,1-1.7,2.1-1.9c1.1-0.2,2.1-0.1,2.1-0.9c0-0.9-0.7-1-1.4-1c-0.9,0-1.5,0.3-1.5,1.2h-1c0.1-1.5,1.2-2.1,2.6-2.1
					c1.1,0,2.3,0.3,2.3,1.7v3.2c0,0.5,0,0.7,0.3,0.7c0.1,0,0.2,0,0.3-0.1V480.7z M168.2,477.5c-0.4,0.3-1.2,0.3-1.8,0.4
					c-0.7,0.1-1.2,0.4-1.2,1.1c0,0.7,0.6,0.9,1.2,0.9c1.3,0,1.9-0.8,1.9-1.4V477.5z"/>
				<path d="M170.8,474.5h1v1h0c0.4-0.8,1.1-1.1,2-1.1c1.6,0,2.1,0.9,2.1,2.3v4.1h-1v-4.2c0-0.8-0.5-1.2-1.3-1.2
					c-1.2,0-1.8,0.8-1.8,1.9v3.5h-1V474.5z"/>
				<path d="M187,474.7c-0.2-1.2-1.2-1.8-2.4-1.8c-2,0-2.9,1.7-2.9,3.5c0,2,0.9,3.6,2.9,3.6c1.5,0,2.4-1.1,2.5-2.5h1.1
					c-0.2,2.1-1.5,3.4-3.7,3.4c-2.7,0-4-2-4-4.5c0-2.5,1.4-4.5,4.1-4.5c1.8,0,3.3,1,3.5,2.8H187z"/>
				<path d="M192.2,474.4c2,0,3,1.4,3,3.2c0,1.8-1,3.2-3,3.2s-3-1.4-3-3.2C189.2,475.8,190.2,474.4,192.2,474.4z M192.2,479.9
					c1.1,0,1.9-0.8,1.9-2.3c0-1.5-0.9-2.4-1.9-2.4s-1.9,0.8-1.9,2.4C190.2,479.1,191.1,479.9,192.2,479.9z"/>
				<path d="M196.4,474.5h1v0.9h0c0.5-0.7,1.2-1.1,2-1.1c0.8,0,1.5,0.3,1.7,1.1c0.4-0.7,1.2-1.1,1.9-1.1c1.2,0,2.1,0.5,2.1,1.8v4.5
					h-1v-4.1c0-0.8-0.2-1.4-1.2-1.4c-1,0-1.6,0.6-1.6,1.6v3.9h-1v-4.1c0-0.8-0.3-1.4-1.2-1.4c-1.2,0-1.7,1.1-1.7,1.6v3.9h-1V474.5z"
					/>
				<path d="M206.6,474.5h1v0.9h0c0.5-0.7,1.2-1.1,2-1.1c0.8,0,1.5,0.3,1.7,1.1c0.4-0.7,1.2-1.1,1.9-1.1c1.2,0,2.1,0.5,2.1,1.8v4.5
					h-1v-4.1c0-0.8-0.2-1.4-1.2-1.4c-1,0-1.6,0.6-1.6,1.6v3.9h-1v-4.1c0-0.8-0.3-1.4-1.2-1.4c-1.2,0-1.7,1.1-1.7,1.6v3.9h-1V474.5z"
					/>
				<path d="M217.9,473.4h-1v-1.2h1V473.4z M216.9,474.5h1v6.2h-1V474.5z"/>
				<path d="M220.2,478.7c0,0.9,0.8,1.2,1.7,1.2c0.6,0,1.5-0.1,1.5-0.9c0-0.8-1-0.9-2-1.2c-1-0.2-2-0.6-2-1.8c0-1.2,1.2-1.8,2.3-1.8
					c1.4,0,2.5,0.4,2.5,1.9h-1c-0.1-0.8-0.8-1-1.4-1c-0.6,0-1.3,0.2-1.3,0.8c0,0.7,1.1,0.9,2,1.1c1,0.2,2,0.6,2,1.8
					c0,1.5-1.4,2-2.6,2c-1.4,0-2.6-0.6-2.6-2.1H220.2z"/>
				<path d="M226.2,478.7c0,0.9,0.8,1.2,1.7,1.2c0.6,0,1.5-0.1,1.5-0.9c0-0.8-1-0.9-2-1.2c-1-0.2-2-0.6-2-1.8c0-1.2,1.2-1.8,2.3-1.8
					c1.4,0,2.5,0.4,2.5,1.9h-1c-0.1-0.8-0.8-1-1.4-1c-0.6,0-1.3,0.2-1.3,0.8c0,0.7,1.1,0.9,2,1.1c1,0.2,2,0.6,2,1.8
					c0,1.5-1.4,2-2.6,2c-1.4,0-2.6-0.6-2.6-2.1H226.2z"/>
				<path d="M232.6,473.4h-1v-1.2h1V473.4z M231.6,474.5h1v6.2h-1V474.5z"/>
				<path d="M236.9,474.4c2,0,3,1.4,3,3.2c0,1.8-1,3.2-3,3.2s-3-1.4-3-3.2C233.9,475.8,234.9,474.4,236.9,474.4z M236.9,479.9
					c1.1,0,1.9-0.8,1.9-2.3c0-1.5-0.9-2.4-1.9-2.4s-1.9,0.8-1.9,2.4C234.9,479.1,235.8,479.9,236.9,479.9z"/>
				<path d="M241.1,474.5h1v1h0c0.4-0.8,1.1-1.1,2-1.1c1.6,0,2.1,0.9,2.1,2.3v4.1h-1v-4.2c0-0.8-0.5-1.2-1.3-1.2
					c-1.2,0-1.8,0.8-1.8,1.9v3.5h-1V474.5z"/>
				<path d="M248,479.4h1.3v1.2c0,0.9-0.4,1.6-1.3,1.9v-0.6c0.5-0.2,0.7-0.8,0.7-1.2H248V479.4z"/>
				<path d="M261.4,477.6c0,2.2-1.2,3.3-3.4,3.3c-2.2,0-3.5-1-3.5-3.3v-5.5h1.1v5.5c0,1.5,0.9,2.3,2.4,2.3c1.4,0,2.2-0.8,2.2-2.3
					v-5.5h1.1V477.6z"/>
				<path d="M263.2,472.1h1.2l4.5,6.9h0v-6.9h1.1v8.6h-1.2l-4.5-6.9h0v6.9h-1.1V472.1z"/>
				<path d="M271.9,472.1h5.6v1h-4.5v2.7h3.9v1h-3.9v3.9h-1.1V472.1z"/>
				<path d="M280.5,472.1h1.3l3.3,8.6h-1.3l-0.9-2.6h-3.6l-1,2.6h-1.2L280.5,472.1z M279.6,477.2h2.9l-1.4-4h0L279.6,477.2z"/>
				<path d="M289.5,471.9c2.7,0,4.1,2.2,4.1,4.5c0,2.3-1.4,4.5-4.1,4.5s-4.1-2.2-4.1-4.5C285.4,474.1,286.8,471.9,289.5,471.9z
					 M289.5,479.9c2.1,0,3-1.8,3-3.5c0-1.7-0.9-3.5-3-3.5s-3,1.8-3,3.5C286.6,478.1,287.5,479.9,289.5,479.9z"/>
			</g>
		</g>
	</g>
</g>
<g>
	<g>
		<g>
			<g>
				<path d="M569.7,473.4l0.1,0.6l-1.3,0.2l0.6,1.2l-0.6,0.3l-0.6-1.2l-0.9,1l-0.4-0.4l0.9-1l-1.1-0.6l0.3-0.6l1.2,0.6l0.3-1.3h0.6
					l-0.3,1.4L569.7,473.4z"/>
				<path d="M576.3,480.1c-0.6,0.5-1.5,0.8-2.5,0.8c-1.2,0-2.1-0.3-2.7-1c-0.6-0.7-1-1.6-1-2.8c0-0.7,0.1-1.4,0.3-2s0.5-1.2,0.9-1.7
					c0.4-0.5,0.9-0.9,1.5-1.1c0.6-0.3,1.2-0.4,2-0.4c0.5,0,0.9,0.1,1.3,0.2c0.4,0.1,0.7,0.3,1,0.6c0.3,0.2,0.5,0.6,0.7,0.9
					s0.3,0.8,0.3,1.3h-1.1c0-0.7-0.2-1.2-0.6-1.5c-0.4-0.3-0.9-0.5-1.5-0.5c-0.6,0-1.1,0.1-1.6,0.4c-0.4,0.3-0.8,0.6-1.1,1
					c-0.3,0.4-0.5,0.9-0.7,1.4c-0.1,0.5-0.2,1-0.2,1.5c0,0.4,0.1,0.8,0.2,1.1c0.1,0.3,0.3,0.6,0.5,0.9s0.5,0.4,0.8,0.6
					s0.7,0.2,1.1,0.2c0.7,0,1.3-0.2,1.7-0.6c0.4-0.4,0.8-0.9,0.9-1.6h1.1C577.3,478.8,576.9,479.5,576.3,480.1z"/>
				<path d="M579.3,475.5c0.2-0.3,0.4-0.5,0.6-0.6c0.2-0.2,0.5-0.3,0.8-0.4s0.6-0.1,0.9-0.1c0.3,0,0.6,0,0.9,0.1
					c0.3,0,0.5,0.1,0.7,0.3c0.2,0.1,0.4,0.3,0.5,0.5s0.2,0.5,0.2,0.8c0,0.2,0,0.4-0.1,0.6s-0.1,0.4-0.1,0.6l-0.4,1.7
					c0,0.1-0.1,0.3-0.1,0.4s-0.1,0.3-0.1,0.5c0,0.1,0,0.2,0.1,0.3s0.1,0.1,0.2,0.1c0,0,0.1,0,0.2,0c0.1,0,0.1,0,0.2-0.1l-0.2,0.8
					c-0.1,0-0.2,0.1-0.3,0.1s-0.2,0-0.3,0c-0.3,0-0.5-0.1-0.6-0.2c-0.1-0.2-0.2-0.4-0.2-0.6l0,0c-0.2,0.3-0.5,0.5-0.8,0.7
					c-0.3,0.2-0.7,0.2-1.3,0.2c-0.3,0-0.5,0-0.7-0.1c-0.2-0.1-0.4-0.2-0.6-0.3s-0.3-0.3-0.4-0.5s-0.2-0.5-0.2-0.8
					c0-0.5,0.1-0.8,0.3-1.1c0.2-0.3,0.4-0.5,0.8-0.6c0.3-0.1,0.6-0.2,1-0.3c0.4,0,0.7-0.1,1.1-0.1c0.3,0,0.5,0,0.7-0.1
					c0.2,0,0.4-0.1,0.5-0.1c0.1-0.1,0.2-0.2,0.3-0.3c0.1-0.1,0.1-0.3,0.1-0.5c0-0.2,0-0.3-0.1-0.4c-0.1-0.1-0.2-0.2-0.3-0.2
					c-0.1-0.1-0.3-0.1-0.4-0.1c-0.1,0-0.3,0-0.4,0c-0.2,0-0.4,0-0.6,0.1s-0.4,0.1-0.5,0.2c-0.2,0.1-0.3,0.2-0.4,0.3
					c-0.1,0.1-0.2,0.3-0.2,0.5h-1C579,476,579.1,475.7,579.3,475.5z M579.6,479.7c0.2,0.1,0.5,0.2,0.8,0.2c0.8,0,1.4-0.3,1.7-0.8
					c0.2-0.2,0.3-0.5,0.3-0.8c0.1-0.3,0.1-0.6,0.2-0.8h0c-0.1,0.1-0.3,0.2-0.5,0.2c-0.2,0-0.5,0.1-0.7,0.1c-0.2,0-0.5,0.1-0.8,0.1
					s-0.5,0.1-0.7,0.2s-0.4,0.2-0.5,0.3c-0.1,0.1-0.2,0.4-0.2,0.6C579.2,479.4,579.3,479.6,579.6,479.7z"/>
				<path d="M588.4,474.5l-0.2,0.9H587l-0.8,3.6c0,0.1,0,0.1,0,0.2c0,0.1,0,0.1,0,0.2c0,0.2,0.1,0.3,0.2,0.3s0.3,0.1,0.4,0.1
					c0.1,0,0.2,0,0.3,0c0.1,0,0.2,0,0.3-0.1l-0.2,0.9c-0.1,0-0.2,0-0.4,0c-0.1,0-0.2,0-0.4,0c-0.2,0-0.4,0-0.5,0
					c-0.2,0-0.3-0.1-0.4-0.2s-0.2-0.2-0.3-0.3s-0.1-0.3-0.1-0.5c0-0.1,0-0.2,0-0.3c0-0.1,0-0.2,0-0.3l0.8-3.9h-1l0.2-0.9h1l0.4-1.8
					h1l-0.4,1.8H588.4z"/>
				<path d="M592.4,474.5l-0.2,0.9H591l-0.8,3.6c0,0.1,0,0.1,0,0.2c0,0.1,0,0.1,0,0.2c0,0.2,0.1,0.3,0.2,0.3s0.3,0.1,0.4,0.1
					c0.1,0,0.2,0,0.3,0c0.1,0,0.2,0,0.3-0.1l-0.2,0.9c-0.1,0-0.2,0-0.4,0c-0.1,0-0.2,0-0.4,0c-0.2,0-0.4,0-0.5,0
					c-0.2,0-0.3-0.1-0.4-0.2s-0.2-0.2-0.3-0.3s-0.1-0.3-0.1-0.5c0-0.1,0-0.2,0-0.3c0-0.1,0-0.2,0-0.3l0.8-3.9h-1l0.2-0.9h1l0.4-1.8
					h1l-0.4,1.8H592.4z"/>
				<path d="M594.9,472.1l-1.8,8.6h-1l1.8-8.6H594.9z"/>
				<path d="M596,478.4c0,0.2,0,0.5,0.1,0.6c0.1,0.2,0.2,0.3,0.4,0.5c0.2,0.1,0.3,0.2,0.5,0.3c0.2,0.1,0.4,0.1,0.6,0.1
					c0.5,0,0.8-0.1,1.1-0.3c0.3-0.2,0.5-0.5,0.7-0.9h1c-0.1,0.3-0.2,0.6-0.4,0.9s-0.4,0.5-0.6,0.6s-0.5,0.3-0.8,0.4s-0.6,0.1-1,0.1
					c-0.5,0-0.9-0.1-1.3-0.2c-0.3-0.2-0.6-0.4-0.8-0.6s-0.3-0.5-0.4-0.8s-0.1-0.6-0.1-0.8c0-0.6,0.1-1.1,0.3-1.6
					c0.2-0.5,0.4-0.9,0.7-1.3c0.3-0.4,0.6-0.6,1-0.8c0.4-0.2,0.8-0.3,1.2-0.3c0.9,0,1.6,0.2,2,0.7c0.4,0.5,0.6,1.2,0.6,2
					c0,0.2,0,0.3,0,0.5c0,0.1,0,0.3-0.1,0.3H596C596,478.1,596,478.3,596,478.4z M599.7,476.4c0-0.2-0.1-0.4-0.2-0.6
					c-0.1-0.2-0.3-0.3-0.5-0.4c-0.2-0.1-0.4-0.2-0.7-0.2c-0.3,0-0.6,0-0.8,0.1c-0.2,0.1-0.4,0.2-0.6,0.4s-0.3,0.3-0.4,0.6
					c-0.1,0.2-0.2,0.4-0.3,0.7h3.6C599.8,476.8,599.8,476.6,599.7,476.4z"/>
				<path d="M605,475.4l0.2-0.9h1.1c0.1-0.3,0.2-0.6,0.2-0.9c0.1-0.3,0.2-0.6,0.3-0.8c0.1-0.2,0.3-0.4,0.5-0.6
					c0.2-0.1,0.5-0.2,1-0.2c0.1,0,0.3,0,0.4,0c0.1,0,0.3,0,0.4,0.1l-0.2,0.9c-0.1,0-0.2,0-0.3,0s-0.2,0-0.2,0c-0.2,0-0.4,0-0.6,0.1
					c-0.1,0.1-0.2,0.2-0.3,0.4c-0.1,0.1-0.1,0.3-0.2,0.5c0,0.2-0.1,0.4-0.1,0.6h1.2l-0.2,0.9h-1.2l-1.1,5.3h-1l1.2-5.3H605z"/>
				<path d="M610.5,474.5l-1.3,6.2h-1l1.3-6.2H610.5z M609.7,473.4l0.3-1.2h1l-0.3,1.2H609.7z"/>
				<path d="M616.1,480.7c-0.1,0.3-0.2,0.5-0.3,0.8c-0.3,0.6-0.6,1.1-1.1,1.3c-0.5,0.3-1,0.4-1.7,0.4c-0.3,0-0.6,0-0.9-0.1
					c-0.3-0.1-0.5-0.2-0.8-0.3c-0.2-0.2-0.4-0.4-0.5-0.6c-0.1-0.2-0.2-0.5-0.2-0.9h1c0,0.2,0.1,0.4,0.2,0.5c0.1,0.1,0.2,0.2,0.3,0.3
					c0.1,0.1,0.3,0.1,0.5,0.2c0.2,0,0.4,0,0.6,0c0.4,0,0.7-0.1,1-0.2c0.3-0.1,0.5-0.3,0.6-0.6c0.2-0.2,0.3-0.5,0.4-0.8
					c0.1-0.3,0.2-0.6,0.3-0.9l0,0c-0.2,0.3-0.5,0.6-0.8,0.7c-0.3,0.1-0.7,0.2-1.1,0.2c-0.4,0-0.7-0.1-1-0.2
					c-0.3-0.1-0.5-0.3-0.7-0.5c-0.2-0.2-0.3-0.5-0.4-0.8c-0.1-0.3-0.2-0.7-0.2-1c0-0.5,0.1-0.9,0.2-1.4c0.1-0.5,0.4-0.9,0.6-1.2
					c0.3-0.4,0.6-0.7,1-0.9c0.4-0.2,0.9-0.3,1.4-0.3c0.2,0,0.5,0,0.7,0.1c0.2,0.1,0.4,0.1,0.6,0.3c0.2,0.1,0.3,0.2,0.5,0.4
					c0.1,0.2,0.2,0.3,0.3,0.5v0h0l0.2-1.1h1l-1.1,5.3C616.3,480.1,616.2,480.4,616.1,480.7z M612.2,478.8c0.1,0.2,0.2,0.4,0.3,0.5
					c0.1,0.2,0.3,0.3,0.5,0.4c0.2,0.1,0.4,0.1,0.7,0.1c0.4,0,0.7-0.1,1-0.3c0.3-0.2,0.5-0.4,0.7-0.7c0.2-0.3,0.3-0.6,0.4-1
					s0.1-0.7,0.1-1c0-0.5-0.1-0.9-0.4-1.2s-0.7-0.4-1.2-0.4c-0.4,0-0.7,0.1-0.9,0.3c-0.3,0.2-0.5,0.4-0.7,0.7s-0.3,0.6-0.4,0.9
					s-0.1,0.7-0.1,0.9C612.1,478.4,612.2,478.6,612.2,478.8z"/>
				<path d="M621.8,480.7l0.2-0.9h0c-0.3,0.4-0.6,0.6-1,0.8c-0.4,0.2-0.8,0.3-1.2,0.3c-0.6,0-1-0.1-1.3-0.4
					c-0.3-0.3-0.4-0.7-0.4-1.2c0-0.1,0-0.3,0-0.5c0-0.2,0.1-0.4,0.1-0.7l0.8-3.5h1l-0.8,3.6c0,0.1,0,0.1,0,0.2c0,0.1,0,0.2,0,0.3
					c0,0.1,0,0.2,0,0.3s0,0.2,0,0.2c0,0.3,0.1,0.5,0.3,0.7s0.5,0.2,0.8,0.2c0.3,0,0.6-0.1,0.8-0.2s0.5-0.3,0.7-0.5
					c0.2-0.2,0.4-0.4,0.5-0.6c0.1-0.2,0.2-0.5,0.3-0.8l0.7-3.4h1l-1.3,6.2H621.8z"/>
				<path d="M626.7,474.5l-0.3,1.3h0c0.2-0.4,0.5-0.8,0.9-1.1s0.8-0.4,1.3-0.4c0.1,0,0.1,0,0.2,0c0.1,0,0.1,0,0.2,0l-0.2,1.1
					c0,0-0.1,0-0.2,0h-0.1c-0.1,0-0.2,0-0.3,0s-0.2,0-0.3,0.1c-0.3,0.1-0.5,0.2-0.8,0.4s-0.4,0.4-0.6,0.6c-0.1,0.2-0.2,0.4-0.3,0.7
					c-0.1,0.3-0.1,0.5-0.2,0.8l-0.6,2.7h-1l1.3-6.2H626.7z"/>
				<path d="M629.8,478.4c0,0.2,0,0.5,0.1,0.6c0.1,0.2,0.2,0.3,0.4,0.5c0.2,0.1,0.3,0.2,0.5,0.3c0.2,0.1,0.4,0.1,0.6,0.1
					c0.5,0,0.8-0.1,1.1-0.3c0.3-0.2,0.5-0.5,0.7-0.9h1c-0.1,0.3-0.2,0.6-0.4,0.9s-0.4,0.5-0.6,0.6s-0.5,0.3-0.8,0.4s-0.6,0.1-1,0.1
					c-0.5,0-0.9-0.1-1.3-0.2c-0.3-0.2-0.6-0.4-0.8-0.6s-0.3-0.5-0.4-0.8s-0.1-0.6-0.1-0.8c0-0.6,0.1-1.1,0.3-1.6
					c0.2-0.5,0.4-0.9,0.7-1.3c0.3-0.4,0.6-0.6,1-0.8c0.4-0.2,0.8-0.3,1.2-0.3c0.9,0,1.6,0.2,2,0.7c0.4,0.5,0.6,1.2,0.6,2
					c0,0.2,0,0.3,0,0.5c0,0.1,0,0.3-0.1,0.3h-4.7C629.8,478.1,629.8,478.3,629.8,478.4z M633.5,476.4c0-0.2-0.1-0.4-0.2-0.6
					c-0.1-0.2-0.3-0.3-0.5-0.4c-0.2-0.1-0.4-0.2-0.7-0.2c-0.3,0-0.6,0-0.8,0.1c-0.2,0.1-0.4,0.2-0.6,0.4s-0.3,0.3-0.4,0.6
					c-0.1,0.2-0.2,0.4-0.3,0.7h3.6C633.6,476.8,633.6,476.6,633.5,476.4z"/>
				<path d="M640.6,474.5l-0.3,1.3h0c0.2-0.4,0.5-0.8,0.9-1.1s0.8-0.4,1.3-0.4c0.1,0,0.1,0,0.2,0c0.1,0,0.1,0,0.2,0l-0.2,1.1
					c0,0-0.1,0-0.2,0h-0.1c-0.1,0-0.2,0-0.3,0s-0.2,0-0.3,0.1c-0.3,0.1-0.5,0.2-0.8,0.4s-0.4,0.4-0.6,0.6c-0.1,0.2-0.2,0.4-0.3,0.7
					c-0.1,0.3-0.1,0.5-0.2,0.8l-0.6,2.7h-1l1.3-6.2H640.6z"/>
				<path d="M643.7,478.4c0,0.2,0,0.5,0.1,0.6c0.1,0.2,0.2,0.3,0.4,0.5c0.2,0.1,0.3,0.2,0.5,0.3c0.2,0.1,0.4,0.1,0.6,0.1
					c0.5,0,0.8-0.1,1.1-0.3c0.3-0.2,0.5-0.5,0.7-0.9h1c-0.1,0.3-0.2,0.6-0.4,0.9s-0.4,0.5-0.6,0.6s-0.5,0.3-0.8,0.4s-0.6,0.1-1,0.1
					c-0.5,0-0.9-0.1-1.3-0.2c-0.3-0.2-0.6-0.4-0.8-0.6s-0.3-0.5-0.4-0.8s-0.1-0.6-0.1-0.8c0-0.6,0.1-1.1,0.3-1.6
					c0.2-0.5,0.4-0.9,0.7-1.3c0.3-0.4,0.6-0.6,1-0.8c0.4-0.2,0.8-0.3,1.2-0.3c0.9,0,1.6,0.2,2,0.7c0.4,0.5,0.6,1.2,0.6,2
					c0,0.2,0,0.3,0,0.5c0,0.1,0,0.3-0.1,0.3h-4.7C643.7,478.1,643.7,478.3,643.7,478.4z M647.4,476.4c0-0.2-0.1-0.4-0.2-0.6
					c-0.1-0.2-0.3-0.3-0.5-0.4c-0.2-0.1-0.4-0.2-0.7-0.2c-0.3,0-0.6,0-0.8,0.1c-0.2,0.1-0.4,0.2-0.6,0.4s-0.3,0.3-0.4,0.6
					c-0.1,0.2-0.2,0.4-0.3,0.7h3.6C647.5,476.8,647.5,476.6,647.4,476.4z"/>
				<path d="M651.2,474.5l-0.2,0.9h0c0.3-0.4,0.6-0.7,0.9-0.8c0.3-0.1,0.7-0.2,1.1-0.2c0.4,0,0.8,0.1,1,0.2s0.6,0.3,0.8,0.5
					c0.2,0.2,0.4,0.5,0.5,0.8c0.1,0.3,0.2,0.7,0.2,1c0,0.5-0.1,0.9-0.2,1.4c-0.2,0.5-0.4,0.9-0.7,1.3s-0.7,0.7-1.1,0.9
					c-0.4,0.2-0.9,0.3-1.5,0.3c-0.2,0-0.4,0-0.6,0s-0.4-0.1-0.6-0.2s-0.3-0.2-0.5-0.3c-0.1-0.1-0.2-0.3-0.3-0.5h0l-0.7,3.3h-1
					l1.8-8.6H651.2z M654.1,475.7c-0.3-0.3-0.7-0.4-1.2-0.4c-0.4,0-0.7,0.1-1,0.3c-0.3,0.2-0.6,0.5-0.8,0.8c-0.2,0.3-0.4,0.6-0.5,1
					c-0.1,0.4-0.2,0.7-0.2,1c0,0.5,0.1,0.8,0.4,1.2c0.3,0.3,0.7,0.5,1.2,0.5c0.4,0,0.8-0.1,1.1-0.3c0.3-0.2,0.6-0.4,0.8-0.7
					s0.4-0.6,0.5-1c0.1-0.4,0.2-0.7,0.2-1.1C654.5,476.4,654.4,476,654.1,475.7z"/>
				<path d="M658.3,474.5l-0.3,1.3h0c0.2-0.4,0.5-0.8,0.9-1.1s0.8-0.4,1.3-0.4c0.1,0,0.1,0,0.2,0c0.1,0,0.1,0,0.2,0l-0.2,1.1
					c0,0-0.1,0-0.2,0h-0.1c-0.1,0-0.2,0-0.3,0s-0.2,0-0.3,0.1c-0.3,0.1-0.5,0.2-0.8,0.4s-0.4,0.4-0.6,0.6c-0.1,0.2-0.2,0.4-0.3,0.7
					c-0.1,0.3-0.1,0.5-0.2,0.8l-0.6,2.7h-1l1.3-6.2H658.3z"/>
				<path d="M661.4,478.4c0,0.2,0,0.5,0.1,0.6c0.1,0.2,0.2,0.3,0.4,0.5c0.2,0.1,0.3,0.2,0.5,0.3c0.2,0.1,0.4,0.1,0.6,0.1
					c0.5,0,0.8-0.1,1.1-0.3c0.3-0.2,0.5-0.5,0.7-0.9h1c-0.1,0.3-0.2,0.6-0.4,0.9s-0.4,0.5-0.6,0.6s-0.5,0.3-0.8,0.4s-0.6,0.1-1,0.1
					c-0.5,0-0.9-0.1-1.3-0.2c-0.3-0.2-0.6-0.4-0.8-0.6s-0.3-0.5-0.4-0.8s-0.1-0.6-0.1-0.8c0-0.6,0.1-1.1,0.3-1.6
					c0.2-0.5,0.4-0.9,0.7-1.3c0.3-0.4,0.6-0.6,1-0.8c0.4-0.2,0.8-0.3,1.2-0.3c0.9,0,1.6,0.2,2,0.7c0.4,0.5,0.6,1.2,0.6,2
					c0,0.2,0,0.3,0,0.5c0,0.1,0,0.3-0.1,0.3h-4.7C661.4,478.1,661.4,478.3,661.4,478.4z M665.1,476.4c0-0.2-0.1-0.4-0.2-0.6
					c-0.1-0.2-0.3-0.3-0.5-0.4c-0.2-0.1-0.4-0.2-0.7-0.2c-0.3,0-0.6,0-0.8,0.1c-0.2,0.1-0.4,0.2-0.6,0.4s-0.3,0.3-0.4,0.6
					c-0.1,0.2-0.2,0.4-0.3,0.7h3.6C665.2,476.8,665.2,476.6,665.1,476.4z"/>
				<path d="M670.7,475.5c-0.3-0.2-0.6-0.3-0.9-0.3c-0.2,0-0.3,0-0.5,0c-0.2,0-0.3,0.1-0.4,0.1c-0.1,0.1-0.2,0.1-0.3,0.2
					c-0.1,0.1-0.1,0.2-0.1,0.4c0,0.1,0,0.3,0.1,0.4c0.1,0.1,0.2,0.2,0.4,0.3s0.3,0.2,0.5,0.2c0.2,0.1,0.4,0.2,0.6,0.2
					c0.2,0.1,0.4,0.2,0.6,0.3c0.2,0.1,0.4,0.2,0.5,0.4s0.3,0.3,0.4,0.5c0.1,0.2,0.1,0.4,0.1,0.6c0,0.3-0.1,0.6-0.2,0.9
					c-0.2,0.2-0.3,0.4-0.6,0.6s-0.5,0.3-0.8,0.3c-0.3,0.1-0.6,0.1-0.9,0.1c-0.4,0-0.7,0-1-0.1c-0.3-0.1-0.6-0.2-0.8-0.3
					c-0.2-0.2-0.4-0.4-0.5-0.6c-0.1-0.3-0.2-0.6-0.2-1h1c0,0.2,0,0.4,0.1,0.6c0.1,0.2,0.2,0.3,0.3,0.4c0.1,0.1,0.3,0.2,0.5,0.2
					c0.2,0,0.4,0.1,0.6,0.1c0.2,0,0.3,0,0.5,0s0.3-0.1,0.5-0.2s0.2-0.2,0.3-0.3s0.1-0.3,0.1-0.4c0-0.2,0-0.3-0.1-0.4
					c-0.1-0.1-0.2-0.2-0.4-0.3c-0.2-0.1-0.3-0.2-0.5-0.2s-0.4-0.2-0.6-0.2c-0.2-0.1-0.4-0.2-0.6-0.3c-0.2-0.1-0.4-0.2-0.5-0.3
					c-0.2-0.1-0.3-0.3-0.4-0.5c-0.1-0.2-0.1-0.4-0.1-0.6c0-0.3,0.1-0.5,0.2-0.8c0.1-0.2,0.3-0.4,0.5-0.6c0.2-0.1,0.5-0.3,0.7-0.3
					c0.3-0.1,0.6-0.1,0.8-0.1c0.3,0,0.6,0,0.9,0.1c0.3,0.1,0.5,0.2,0.8,0.3s0.4,0.4,0.5,0.6c0.1,0.3,0.2,0.6,0.2,0.9h-1
					C671,476,670.9,475.7,670.7,475.5z"/>
				<path d="M673.7,478.4c0,0.2,0,0.5,0.1,0.6c0.1,0.2,0.2,0.3,0.4,0.5c0.2,0.1,0.3,0.2,0.5,0.3c0.2,0.1,0.4,0.1,0.6,0.1
					c0.5,0,0.8-0.1,1.1-0.3c0.3-0.2,0.5-0.5,0.7-0.9h1c-0.1,0.3-0.2,0.6-0.4,0.9s-0.4,0.5-0.6,0.6s-0.5,0.3-0.8,0.4s-0.6,0.1-1,0.1
					c-0.5,0-0.9-0.1-1.3-0.2c-0.3-0.2-0.6-0.4-0.8-0.6s-0.3-0.5-0.4-0.8s-0.1-0.6-0.1-0.8c0-0.6,0.1-1.1,0.3-1.6
					c0.2-0.5,0.4-0.9,0.7-1.3c0.3-0.4,0.6-0.6,1-0.8c0.4-0.2,0.8-0.3,1.2-0.3c0.9,0,1.6,0.2,2,0.7c0.4,0.5,0.6,1.2,0.6,2
					c0,0.2,0,0.3,0,0.5c0,0.1,0,0.3-0.1,0.3h-4.7C673.7,478.1,673.7,478.3,673.7,478.4z M677.5,476.4c0-0.2-0.1-0.4-0.2-0.6
					c-0.1-0.2-0.3-0.3-0.5-0.4c-0.2-0.1-0.4-0.2-0.7-0.2c-0.3,0-0.6,0-0.8,0.1c-0.2,0.1-0.4,0.2-0.6,0.4s-0.3,0.3-0.4,0.6
					c-0.1,0.2-0.2,0.4-0.3,0.7h3.6C677.5,476.8,677.5,476.6,677.5,476.4z"/>
				<path d="M681.3,474.5l-0.2,0.9h0c0.3-0.4,0.6-0.6,1-0.8c0.4-0.2,0.8-0.3,1.2-0.3c0.6,0,1,0.1,1.3,0.4c0.3,0.3,0.4,0.7,0.4,1.2
					c0,0.1,0,0.3,0,0.5c0,0.2-0.1,0.4-0.1,0.7l-0.8,3.5h-1l0.8-3.6c0-0.1,0-0.1,0-0.2c0-0.1,0-0.2,0-0.3c0-0.1,0-0.2,0-0.3
					s0-0.2,0-0.2c0-0.3-0.1-0.5-0.3-0.7c-0.2-0.1-0.5-0.2-0.8-0.2c-0.3,0-0.6,0.1-0.8,0.2c-0.3,0.1-0.5,0.3-0.7,0.5
					c-0.2,0.2-0.3,0.4-0.4,0.6c-0.1,0.2-0.2,0.5-0.3,0.7l-0.7,3.4h-1l1.3-6.2H681.3z"/>
				<path d="M689.5,474.5l-0.2,0.9h-1.2l-0.8,3.6c0,0.1,0,0.1,0,0.2c0,0.1,0,0.1,0,0.2c0,0.2,0.1,0.3,0.2,0.3s0.3,0.1,0.4,0.1
					c0.1,0,0.2,0,0.3,0c0.1,0,0.2,0,0.3-0.1l-0.2,0.9c-0.1,0-0.2,0-0.4,0c-0.1,0-0.2,0-0.4,0c-0.2,0-0.4,0-0.5,0
					c-0.2,0-0.3-0.1-0.4-0.2s-0.2-0.2-0.3-0.3s-0.1-0.3-0.1-0.5c0-0.1,0-0.2,0-0.3c0-0.1,0-0.2,0-0.3l0.8-3.9h-1l0.2-0.9h1l0.4-1.8
					h1l-0.4,1.8H689.5z"/>
				<path d="M693.4,475.5c-0.3-0.2-0.6-0.3-0.9-0.3c-0.2,0-0.3,0-0.5,0c-0.2,0-0.3,0.1-0.4,0.1c-0.1,0.1-0.2,0.1-0.3,0.2
					c-0.1,0.1-0.1,0.2-0.1,0.4c0,0.1,0,0.3,0.1,0.4c0.1,0.1,0.2,0.2,0.4,0.3s0.3,0.2,0.5,0.2c0.2,0.1,0.4,0.2,0.6,0.2
					c0.2,0.1,0.4,0.2,0.6,0.3c0.2,0.1,0.4,0.2,0.5,0.4s0.3,0.3,0.4,0.5c0.1,0.2,0.1,0.4,0.1,0.6c0,0.3-0.1,0.6-0.2,0.9
					c-0.2,0.2-0.3,0.4-0.6,0.6s-0.5,0.3-0.8,0.3c-0.3,0.1-0.6,0.1-0.9,0.1c-0.4,0-0.7,0-1-0.1c-0.3-0.1-0.6-0.2-0.8-0.3
					c-0.2-0.2-0.4-0.4-0.5-0.6c-0.1-0.3-0.2-0.6-0.2-1h1c0,0.2,0,0.4,0.1,0.6c0.1,0.2,0.2,0.3,0.3,0.4c0.1,0.1,0.3,0.2,0.5,0.2
					c0.2,0,0.4,0.1,0.6,0.1c0.2,0,0.3,0,0.5,0s0.3-0.1,0.5-0.2s0.2-0.2,0.3-0.3s0.1-0.3,0.1-0.4c0-0.2,0-0.3-0.1-0.4
					c-0.1-0.1-0.2-0.2-0.4-0.3c-0.2-0.1-0.3-0.2-0.5-0.2s-0.4-0.2-0.6-0.2c-0.2-0.1-0.4-0.2-0.6-0.3c-0.2-0.1-0.4-0.2-0.5-0.3
					c-0.2-0.1-0.3-0.3-0.4-0.5c-0.1-0.2-0.1-0.4-0.1-0.6c0-0.3,0.1-0.5,0.2-0.8c0.1-0.2,0.3-0.4,0.5-0.6c0.2-0.1,0.5-0.3,0.7-0.3
					c0.3-0.1,0.6-0.1,0.8-0.1c0.3,0,0.6,0,0.9,0.1c0.3,0.1,0.5,0.2,0.8,0.3s0.4,0.4,0.5,0.6c0.1,0.3,0.2,0.6,0.2,0.9h-1
					C693.7,476,693.6,475.7,693.4,475.5z"/>
				<path d="M705.2,480.1c-0.6,0.5-1.5,0.8-2.5,0.8c-1.2,0-2.1-0.3-2.7-1c-0.6-0.7-1-1.6-1-2.8c0-0.7,0.1-1.4,0.3-2s0.5-1.2,0.9-1.7
					c0.4-0.5,0.9-0.9,1.5-1.1c0.6-0.3,1.2-0.4,2-0.4c0.5,0,0.9,0.1,1.3,0.2c0.4,0.1,0.7,0.3,1,0.6c0.3,0.2,0.5,0.6,0.7,0.9
					s0.3,0.8,0.3,1.3h-1.1c0-0.7-0.2-1.2-0.6-1.5c-0.4-0.3-0.9-0.5-1.5-0.5c-0.6,0-1.1,0.1-1.6,0.4c-0.4,0.3-0.8,0.6-1.1,1
					c-0.3,0.4-0.5,0.9-0.7,1.4c-0.1,0.5-0.2,1-0.2,1.5c0,0.4,0.1,0.8,0.2,1.1c0.1,0.3,0.3,0.6,0.5,0.9s0.5,0.4,0.8,0.6
					s0.7,0.2,1.1,0.2c0.7,0,1.3-0.2,1.7-0.6c0.4-0.4,0.8-0.9,0.9-1.6h1.1C706.3,478.8,705.8,479.5,705.2,480.1z"/>
				<path d="M708,475.2c0.2-0.6,0.5-1.2,0.9-1.7c0.4-0.5,0.9-0.9,1.5-1.1c0.6-0.3,1.2-0.4,2-0.4c0.6,0,1,0.1,1.5,0.3
					c0.4,0.2,0.8,0.5,1.1,0.8c0.3,0.3,0.5,0.7,0.7,1.2s0.2,1,0.2,1.5c0,0.7-0.1,1.3-0.3,1.9s-0.5,1.2-0.9,1.7
					c-0.4,0.5-0.9,0.9-1.5,1.1c-0.6,0.3-1.2,0.4-1.9,0.4c-1.2,0-2.1-0.3-2.7-1c-0.6-0.7-1-1.6-1-2.8
					C707.6,476.5,707.7,475.8,708,475.2z M708.9,478.3c0.1,0.3,0.3,0.6,0.5,0.9s0.5,0.4,0.8,0.6s0.7,0.2,1.1,0.2
					c0.6,0,1.1-0.1,1.5-0.4s0.8-0.6,1.1-1c0.3-0.4,0.5-0.9,0.7-1.4c0.1-0.5,0.2-1,0.2-1.5c0-0.4-0.1-0.8-0.2-1.1
					c-0.1-0.3-0.3-0.6-0.5-0.9s-0.5-0.5-0.8-0.6s-0.7-0.2-1-0.2c-0.6,0-1.1,0.1-1.6,0.4c-0.4,0.3-0.8,0.6-1.1,1
					c-0.3,0.4-0.5,0.9-0.7,1.4c-0.1,0.5-0.2,1-0.2,1.5C708.8,477.6,708.8,477.9,708.9,478.3z"/>
				<path d="M717,477.3c0.1-0.2,0.2-0.4,0.4-0.5c0.1-0.1,0.3-0.3,0.5-0.3c0.2-0.1,0.4-0.1,0.7-0.1c0.2,0,0.4,0,0.6,0.1
					c0.2,0.1,0.3,0.1,0.4,0.3c0.1,0.1,0.2,0.3,0.3,0.4s0.1,0.3,0.1,0.6c0,0.2,0,0.4-0.1,0.5c-0.1,0.2-0.2,0.3-0.3,0.5
					s-0.2,0.3-0.4,0.4s-0.3,0.2-0.5,0.3c-0.2,0.1-0.3,0.2-0.5,0.3s-0.3,0.2-0.5,0.3c-0.1,0.1-0.2,0.1-0.2,0.2s-0.2,0.1-0.2,0.2
					s-0.1,0.1-0.2,0.2c-0.1,0.1-0.1,0.2-0.1,0.3h2.6l-0.1,0.5h-3.2c0-0.3,0.1-0.5,0.2-0.7c0.1-0.2,0.2-0.4,0.3-0.5
					c0.1-0.1,0.3-0.3,0.4-0.4c0.2-0.1,0.3-0.2,0.5-0.3c0.2-0.1,0.3-0.2,0.5-0.3c0.2-0.1,0.3-0.2,0.5-0.3c0.1-0.1,0.2-0.1,0.3-0.2
					c0.1-0.1,0.1-0.1,0.2-0.2c0.1-0.1,0.1-0.2,0.1-0.3c0-0.1,0-0.2,0-0.3c0-0.3-0.1-0.5-0.2-0.6c-0.1-0.1-0.4-0.2-0.6-0.2
					c-0.2,0-0.3,0-0.4,0.1c-0.1,0.1-0.2,0.1-0.3,0.3c-0.1,0.1-0.2,0.2-0.2,0.4c-0.1,0.1-0.1,0.3-0.1,0.4h-0.6
					C716.9,477.8,716.9,477.5,717,477.3z"/>
				<path d="M724.7,478.4c0,0.2,0,0.5,0.1,0.6c0.1,0.2,0.2,0.3,0.4,0.5c0.2,0.1,0.3,0.2,0.5,0.3c0.2,0.1,0.4,0.1,0.6,0.1
					c0.5,0,0.8-0.1,1.1-0.3c0.3-0.2,0.5-0.5,0.7-0.9h1c-0.1,0.3-0.2,0.6-0.4,0.9s-0.4,0.5-0.6,0.6s-0.5,0.3-0.8,0.4s-0.6,0.1-1,0.1
					c-0.5,0-0.9-0.1-1.3-0.2c-0.3-0.2-0.6-0.4-0.8-0.6s-0.3-0.5-0.4-0.8s-0.1-0.6-0.1-0.8c0-0.6,0.1-1.1,0.3-1.6
					c0.2-0.5,0.4-0.9,0.7-1.3c0.3-0.4,0.6-0.6,1-0.8c0.4-0.2,0.8-0.3,1.2-0.3c0.9,0,1.6,0.2,2,0.7c0.4,0.5,0.6,1.2,0.6,2
					c0,0.2,0,0.3,0,0.5c0,0.1,0,0.3-0.1,0.3h-4.7C724.7,478.1,724.7,478.3,724.7,478.4z M728.5,476.4c0-0.2-0.1-0.4-0.2-0.6
					c-0.1-0.2-0.3-0.3-0.5-0.4c-0.2-0.1-0.4-0.2-0.7-0.2c-0.3,0-0.6,0-0.8,0.1c-0.2,0.1-0.4,0.2-0.6,0.4s-0.3,0.3-0.4,0.6
					c-0.1,0.2-0.2,0.4-0.3,0.7h3.6C728.5,476.8,728.5,476.6,728.5,476.4z"/>
				<path d="M734,483.1l0.7-3.2h0c-0.2,0.3-0.5,0.5-0.9,0.7c-0.3,0.2-0.7,0.2-1.1,0.2c-0.4,0-0.8-0.1-1.1-0.2
					c-0.3-0.1-0.5-0.3-0.7-0.6s-0.3-0.5-0.4-0.9c-0.1-0.3-0.1-0.7-0.1-1.1c0-0.5,0.1-0.9,0.2-1.4c0.1-0.5,0.4-0.9,0.6-1.2
					c0.3-0.4,0.6-0.6,1-0.9c0.4-0.2,0.9-0.3,1.4-0.3c0.5,0,0.9,0.1,1.2,0.2c0.4,0.2,0.6,0.5,0.8,0.9h0l0.2-1h1l-1.8,8.6H734z
					 M731.4,478.8c0.1,0.2,0.2,0.4,0.3,0.6s0.3,0.3,0.5,0.4c0.2,0.1,0.4,0.1,0.7,0.1c0.4,0,0.8-0.1,1.1-0.3s0.5-0.5,0.7-0.8
					c0.2-0.3,0.3-0.7,0.4-1s0.1-0.7,0.1-1c0-0.5-0.1-0.9-0.4-1.1s-0.7-0.4-1.2-0.4c-0.4,0-0.7,0.1-1,0.3s-0.5,0.4-0.7,0.7
					c-0.2,0.3-0.4,0.6-0.5,0.9s-0.2,0.7-0.2,1C731.3,478.4,731.4,478.6,731.4,478.8z"/>
				<path d="M741.2,480.7l0.2-0.9h0c-0.3,0.4-0.6,0.6-1,0.8c-0.4,0.2-0.8,0.3-1.2,0.3c-0.6,0-1-0.1-1.3-0.4
					c-0.3-0.3-0.4-0.7-0.4-1.2c0-0.1,0-0.3,0-0.5c0-0.2,0.1-0.4,0.1-0.7l0.8-3.5h1l-0.8,3.6c0,0.1,0,0.1,0,0.2c0,0.1,0,0.2,0,0.3
					c0,0.1,0,0.2,0,0.3s0,0.2,0,0.2c0,0.3,0.1,0.5,0.3,0.7s0.5,0.2,0.8,0.2c0.3,0,0.6-0.1,0.8-0.2s0.5-0.3,0.7-0.5
					c0.2-0.2,0.4-0.4,0.5-0.6c0.1-0.2,0.2-0.5,0.3-0.8l0.7-3.4h1l-1.3,6.2H741.2z"/>
				<path d="M746.2,474.5l-1.3,6.2h-1l1.3-6.2H746.2z M745.4,473.4l0.3-1.2h1l-0.3,1.2H745.4z"/>
				<path d="M748,480.7l-0.9-6.2h1.1l0.5,5.2h0l2.7-5.2h1.1l-3.4,6.2H748z"/>
				<path d="M753.1,475.5c0.2-0.3,0.4-0.5,0.6-0.6c0.2-0.2,0.5-0.3,0.8-0.4s0.6-0.1,0.9-0.1c0.3,0,0.6,0,0.9,0.1
					c0.3,0,0.5,0.1,0.7,0.3c0.2,0.1,0.4,0.3,0.5,0.5s0.2,0.5,0.2,0.8c0,0.2,0,0.4-0.1,0.6s-0.1,0.4-0.1,0.6l-0.4,1.7
					c0,0.1-0.1,0.3-0.1,0.4s-0.1,0.3-0.1,0.5c0,0.1,0,0.2,0.1,0.3s0.1,0.1,0.2,0.1c0,0,0.1,0,0.2,0c0.1,0,0.1,0,0.2-0.1l-0.2,0.8
					c-0.1,0-0.2,0.1-0.3,0.1s-0.2,0-0.3,0c-0.3,0-0.5-0.1-0.6-0.2c-0.1-0.2-0.2-0.4-0.2-0.6l0,0c-0.2,0.3-0.5,0.5-0.8,0.7
					c-0.3,0.2-0.7,0.2-1.3,0.2c-0.3,0-0.5,0-0.7-0.1c-0.2-0.1-0.4-0.2-0.6-0.3s-0.3-0.3-0.4-0.5s-0.2-0.5-0.2-0.8
					c0-0.5,0.1-0.8,0.3-1.1c0.2-0.3,0.4-0.5,0.8-0.6c0.3-0.1,0.6-0.2,1-0.3c0.4,0,0.7-0.1,1.1-0.1c0.3,0,0.5,0,0.7-0.1
					c0.2,0,0.4-0.1,0.5-0.1c0.1-0.1,0.2-0.2,0.3-0.3c0.1-0.1,0.1-0.3,0.1-0.5c0-0.2,0-0.3-0.1-0.4c-0.1-0.1-0.2-0.2-0.3-0.2
					c-0.1-0.1-0.3-0.1-0.4-0.1c-0.1,0-0.3,0-0.4,0c-0.2,0-0.4,0-0.6,0.1s-0.4,0.1-0.5,0.2c-0.2,0.1-0.3,0.2-0.4,0.3
					c-0.1,0.1-0.2,0.3-0.2,0.5h-1C752.8,476,753,475.7,753.1,475.5z M753.4,479.7c0.2,0.1,0.5,0.2,0.8,0.2c0.8,0,1.4-0.3,1.7-0.8
					c0.2-0.2,0.3-0.5,0.3-0.8c0.1-0.3,0.1-0.6,0.2-0.8h0c-0.1,0.1-0.3,0.2-0.5,0.2c-0.2,0-0.5,0.1-0.7,0.1c-0.2,0-0.5,0.1-0.8,0.1
					s-0.5,0.1-0.7,0.2s-0.4,0.2-0.5,0.3c-0.1,0.1-0.2,0.4-0.2,0.6C753.1,479.4,753.2,479.6,753.4,479.7z"/>
				<path d="M761.2,472.1l-1.8,8.6h-1l1.8-8.6H761.2z"/>
				<path d="M762.3,478.4c0,0.2,0,0.5,0.1,0.6c0.1,0.2,0.2,0.3,0.4,0.5c0.2,0.1,0.3,0.2,0.5,0.3c0.2,0.1,0.4,0.1,0.6,0.1
					c0.5,0,0.8-0.1,1.1-0.3c0.3-0.2,0.5-0.5,0.7-0.9h1c-0.1,0.3-0.2,0.6-0.4,0.9s-0.4,0.5-0.6,0.6s-0.5,0.3-0.8,0.4s-0.6,0.1-1,0.1
					c-0.5,0-0.9-0.1-1.3-0.2c-0.3-0.2-0.6-0.4-0.8-0.6s-0.3-0.5-0.4-0.8s-0.1-0.6-0.1-0.8c0-0.6,0.1-1.1,0.3-1.6
					c0.2-0.5,0.4-0.9,0.7-1.3c0.3-0.4,0.6-0.6,1-0.8c0.4-0.2,0.8-0.3,1.2-0.3c0.9,0,1.6,0.2,2,0.7c0.4,0.5,0.6,1.2,0.6,2
					c0,0.2,0,0.3,0,0.5c0,0.1,0,0.3-0.1,0.3h-4.7C762.3,478.1,762.3,478.3,762.3,478.4z M766,476.4c0-0.2-0.1-0.4-0.2-0.6
					c-0.1-0.2-0.3-0.3-0.5-0.4c-0.2-0.1-0.4-0.2-0.7-0.2c-0.3,0-0.6,0-0.8,0.1c-0.2,0.1-0.4,0.2-0.6,0.4s-0.3,0.3-0.4,0.6
					c-0.1,0.2-0.2,0.4-0.3,0.7h3.6C766.1,476.8,766,476.6,766,476.4z"/>
				<path d="M769.9,474.5l-0.2,0.9h0c0.3-0.4,0.6-0.6,1-0.8c0.4-0.2,0.8-0.3,1.2-0.3c0.6,0,1,0.1,1.3,0.4c0.3,0.3,0.4,0.7,0.4,1.2
					c0,0.1,0,0.3,0,0.5c0,0.2-0.1,0.4-0.1,0.7l-0.8,3.5h-1l0.8-3.6c0-0.1,0-0.1,0-0.2c0-0.1,0-0.2,0-0.3c0-0.1,0-0.2,0-0.3
					s0-0.2,0-0.2c0-0.3-0.1-0.5-0.3-0.7c-0.2-0.1-0.5-0.2-0.8-0.2c-0.3,0-0.6,0.1-0.8,0.2c-0.3,0.1-0.5,0.3-0.7,0.5
					c-0.2,0.2-0.3,0.4-0.4,0.6c-0.1,0.2-0.2,0.5-0.3,0.7l-0.7,3.4h-1l1.3-6.2H769.9z"/>
				<path d="M778.1,474.5l-0.2,0.9h-1.2l-0.8,3.6c0,0.1,0,0.1,0,0.2c0,0.1,0,0.1,0,0.2c0,0.2,0.1,0.3,0.2,0.3s0.3,0.1,0.4,0.1
					c0.1,0,0.2,0,0.3,0c0.1,0,0.2,0,0.3-0.1l-0.2,0.9c-0.1,0-0.2,0-0.4,0c-0.1,0-0.2,0-0.4,0c-0.2,0-0.4,0-0.5,0
					c-0.2,0-0.3-0.1-0.4-0.2s-0.2-0.2-0.3-0.3s-0.1-0.3-0.1-0.5c0-0.1,0-0.2,0-0.3c0-0.1,0-0.2,0-0.3l0.8-3.9h-1l0.2-0.9h1l0.4-1.8
					h1l-0.4,1.8H778.1z"/>
			</g>
		</g>
	</g>
</g>
<g>
	<path d="M25.1,20.8h5.2v20h-5.2V20.8z"/>
	<path d="M34.7,29.4h-2.3v-3.1h2.3c0-4.2,1.5-5.5,5.5-5.5c0.8,0,1.5,0.1,2.3,0.1v3.4c-0.4-0.1-0.9-0.1-1.3-0.1
		c-1.1,0-1.8,0.1-1.8,1.5v0.6h2.9v3.1h-2.9v11.5h-4.8V29.4z"/>
	<path d="M61.8,31.6c0-1.2-1.1-2.1-2.3-2.1c-2.7,0-3.1,2.3-3.1,4.3c0,1.9,0.8,3.8,2.8,3.8c1.7,0,2.5-1,2.7-2.5h4.6
		c-0.4,3.9-3.4,6.1-7.3,6.1c-4.4,0-7.6-3-7.6-7.4c0-4.6,2.9-7.9,7.6-7.9c3.6,0,6.8,1.9,7.2,5.7H61.8z"/>
	<path d="M68.7,30.8c0.1-1.9,1-3.1,2.3-3.9c1.3-0.7,3-1,4.6-1c3.4,0,6.8,0.8,6.8,4.9v6.4c0,1.2,0,2.6,0.6,3.7h-4.8
		c-0.2-0.4-0.2-0.9-0.3-1.4c-1.2,1.3-3.1,1.8-4.8,1.8c-2.8,0-5-1.4-5-4.4c0-4.7,5.2-4.4,8.5-5c0.8-0.2,1.3-0.4,1.3-1.3
		c0-1.1-1.3-1.5-2.3-1.5c-1.3,0-2.2,0.6-2.4,1.8H68.7z M74.9,38.3c2.3,0,3-1.3,2.9-4.3c-0.7,0.4-1.9,0.5-2.9,0.8
		c-1.1,0.3-2,0.7-2,1.8C72.9,37.8,73.8,38.3,74.9,38.3z"/>
	<path d="M94.3,29.4h-2.9V36c0,1.1,0.7,1.4,1.7,1.4c0.4,0,0.8-0.1,1.2-0.1v3.5c-0.9,0-1.7,0.1-2.6,0.1c-4.1,0-5.1-1.2-5.1-5.1v-6.5
		h-2.4v-3.1h2.4v-4.4h4.8v4.4h2.9V29.4z"/>
	<path d="M105.2,29.4h-2.9V36c0,1.1,0.7,1.4,1.7,1.4c0.4,0,0.8-0.1,1.2-0.1v3.5c-0.9,0-1.7,0.1-2.6,0.1c-4.1,0-5.1-1.2-5.1-5.1v-6.5
		h-2.4v-3.1h2.4v-4.4h4.8v4.4h2.9V29.4z"/>
	<path d="M107.5,20.8h4.8v20h-4.8V20.8z"/>
	<path d="M119.6,34.7c0.1,2,1.2,3.3,3.2,3.3c1.1,0,2.3-0.5,2.7-1.6h4.5c-0.9,3.4-4,4.8-7.2,4.8c-4.7,0-8-2.9-8-7.7
		c0-4.5,3.6-7.6,7.8-7.6c5.2,0,7.8,3.9,7.6,8.8H119.6z M125.6,32c-0.1-1.6-1.2-3-2.8-3c-1.7,0-2.8,1.2-3.1,3H125.6z"/>
	<path d="M158.1,40.8h-4.8l-2.3-9.7H151l-2.3,9.7h-4.8l-4.5-14.5h4.8l2.4,9.4h0.1l2.1-9.4h4.5l2.1,9.4h0.1l2.4-9.4h4.8L158.1,40.8z"
		/>
	<path d="M168.3,34.7c0.1,2,1.2,3.3,3.2,3.3c1.1,0,2.3-0.5,2.7-1.6h4.5c-0.9,3.4-4,4.8-7.2,4.8c-4.7,0-8-2.9-8-7.7
		c0-4.5,3.6-7.6,7.8-7.6c5.2,0,7.8,3.9,7.6,8.8H168.3z M174.2,32c-0.1-1.6-1.2-3-2.8-3c-1.7,0-2.8,1.2-3.1,3H174.2z"/>
	<path d="M181.6,26.3h4.6v2.5h0.1c0.7-1.8,2.3-2.8,4.4-2.8c0.4,0,0.8,0,1.1,0.1v4.3c-0.6-0.2-1.2-0.3-1.8-0.3
		c-2.4,0-3.6,1.6-3.6,3.4v7.2h-4.8V26.3z"/>
	<path d="M196.9,34.7c0.1,2,1.2,3.3,3.2,3.3c1.1,0,2.3-0.5,2.7-1.6h4.5c-0.9,3.4-4,4.8-7.2,4.8c-4.7,0-8-2.9-8-7.7
		c0-4.5,3.6-7.6,7.8-7.6c5.2,0,7.8,3.9,7.6,8.8H196.9z M202.8,32c-0.1-1.6-1.2-3-2.8-3c-1.7,0-2.8,1.2-3.1,3H202.8z"/>
	<path d="M218,30.8c0.1-1.9,1-3.1,2.3-3.9c1.3-0.7,3-1,4.6-1c3.4,0,6.8,0.8,6.8,4.9v6.4c0,1.2,0,2.6,0.6,3.7h-4.8
		c-0.2-0.4-0.2-0.9-0.3-1.4c-1.2,1.3-3.1,1.8-4.8,1.8c-2.8,0-5-1.4-5-4.4c0-4.7,5.2-4.4,8.5-5c0.8-0.2,1.3-0.4,1.3-1.3
		c0-1.1-1.3-1.5-2.3-1.5c-1.3,0-2.2,0.6-2.4,1.8H218z M224.1,38.3c2.3,0,3-1.3,2.9-4.3c-0.7,0.4-1.9,0.5-2.9,0.8
		c-1.1,0.3-2,0.7-2,1.8C222.2,37.8,223.1,38.3,224.1,38.3z"/>
	<path d="M252.5,31.6c0-1.2-1.1-2.1-2.3-2.1c-2.7,0-3.1,2.3-3.1,4.3c0,1.9,0.8,3.8,2.8,3.8c1.7,0,2.5-1,2.7-2.5h4.6
		c-0.4,3.9-3.4,6.1-7.3,6.1c-4.4,0-7.6-3-7.6-7.4c0-4.6,2.9-7.9,7.6-7.9c3.6,0,6.8,1.9,7.2,5.7H252.5z"/>
	<path d="M266.6,25.9c4.5,0,7.7,3.3,7.7,7.7s-3.2,7.7-7.7,7.7s-7.6-3.3-7.6-7.7S262.1,25.9,266.6,25.9z M266.6,37.6
		c2.2,0,2.9-2.2,2.9-4s-0.7-4.1-2.9-4.1s-2.9,2.2-2.9,4.1S264.4,37.6,266.6,37.6z"/>
	<path d="M291.2,40.8h-4.6v-2h-0.1c-0.9,1.5-2.7,2.4-4.4,2.4c-4.2,0-5.4-2.4-5.4-6.2v-8.7h4.8v8.4c0,1.9,0.8,2.6,2.4,2.6
		c1,0,2.6-0.7,2.6-3.2v-7.8h4.8V40.8z"/>
	<path d="M294.4,26.3h4.6v2h0.1c0.9-1.5,2.8-2.4,4.6-2.4c4.8,0,5.2,3.5,5.2,5.6v9.3h-4.8v-7c0-2,0.2-4-2.4-4c-1.8,0-2.6,1.5-2.6,3.1
		v7.9h-4.8V26.3z"/>
	<path d="M320.8,29.4h-2.9V36c0,1.1,0.7,1.4,1.7,1.4c0.4,0,0.8-0.1,1.2-0.1v3.5c-0.9,0-1.7,0.1-2.6,0.1c-4.1,0-5.1-1.2-5.1-5.1v-6.5
		h-2.4v-3.1h2.4v-4.4h4.8v4.4h2.9V29.4z"/>
	<path d="M323.1,26.3h4.6v2.5h0.1c0.7-1.8,2.3-2.8,4.4-2.8c0.4,0,0.8,0,1.1,0.1v4.3c-0.6-0.2-1.2-0.3-1.8-0.3
		c-2.4,0-3.6,1.6-3.6,3.4v7.2h-4.8V26.3z"/>
	<path d="M342.8,42.1c-1.1,3.2-2.9,3.6-6.1,3.6h-2.2v-3.9h1.7c1.1,0,1.9-0.6,1.9-1.6c0-0.8-0.9-3-1.2-3.8l-3.8-10.1h5l2.7,9.5h0.1
		l2.7-9.5h4.9L342.8,42.1z"/>
	<path d="M347.5,35.6h5.2v4.6c0,4-3.1,5.2-5.2,5.5v-2.2c1.5-0.4,2.1-1.2,2.3-2.6h-2.3V35.6z"/>
	<path d="M373.1,29.4h-2.9V36c0,1.1,0.7,1.4,1.7,1.4c0.4,0,0.8-0.1,1.2-0.1v3.5c-0.9,0-1.7,0.1-2.6,0.1c-4.1,0-5.1-1.2-5.1-5.1v-6.5
		H363v-3.1h2.4v-4.4h4.8v4.4h2.9V29.4z"/>
	<path d="M375.3,20.8h4.8v7.4h0.1c0.7-1.5,2.7-2.4,4.4-2.4c4.8,0,5.2,3.5,5.2,5.6v9.3H385v-7c0-2,0.2-4-2.4-4
		c-1.8,0-2.6,1.5-2.6,3.1v7.9h-4.8V20.8z"/>
	<path d="M397,34.7c0.1,2,1.2,3.3,3.2,3.3c1.1,0,2.3-0.5,2.7-1.6h4.5c-0.9,3.4-4,4.8-7.2,4.8c-4.7,0-8-2.9-8-7.7
		c0-4.5,3.6-7.6,7.8-7.6c5.2,0,7.8,3.9,7.6,8.8H397z M402.9,32c-0.1-1.6-1.2-3-2.8-3c-1.7,0-2.8,1.2-3.1,3H402.9z"/>
	<path d="M417.9,42.1c-1.1,3.2-2.9,3.6-6.1,3.6h-2.2v-3.9h1.7c1.1,0,1.9-0.6,1.9-1.6c0-0.8-0.9-3-1.2-3.8l-3.8-10.1h5l2.7,9.5h0.1
		l2.7-9.5h4.9L417.9,42.1z"/>
	<path d="M450.5,40.8h-4.8l-2.3-9.7h-0.1l-2.3,9.7h-4.8l-4.5-14.5h4.8l2.4,9.4h0.1l2.1-9.4h4.5l2.1,9.4h0.1l2.4-9.4h4.8L450.5,40.8z
		"/>
	<path d="M463.6,25.9c4.5,0,7.7,3.3,7.7,7.7s-3.2,7.7-7.7,7.7s-7.6-3.3-7.6-7.7S459.1,25.9,463.6,25.9z M463.6,37.6
		c2.2,0,2.9-2.2,2.9-4s-0.7-4.1-2.9-4.1s-2.9,2.2-2.9,4.1S461.4,37.6,463.6,37.6z"/>
	<path d="M488.2,40.8h-4.6v-2h-0.1c-0.9,1.5-2.7,2.4-4.4,2.4c-4.2,0-5.4-2.4-5.4-6.2v-8.7h4.8v8.4c0,1.9,0.8,2.6,2.4,2.6
		c1,0,2.6-0.7,2.6-3.2v-7.8h4.8V40.8z"/>
	<path d="M491.5,20.8h4.8v20h-4.8V20.8z"/>
	<path d="M514,40.8h-4.5v-1.7h-0.1c-0.9,1.4-2.3,2.1-4,2.1c-4.6,0-6.5-3.9-6.5-8c0-3.8,2-7.4,6.1-7.4c1.8,0,3.2,0.7,4.1,2h0.1v-7
		h4.8V40.8z M503.7,33.4c0,2,0.7,4.2,2.9,4.2c2.3,0,2.8-2.2,2.8-4.1c0-2.1-0.8-4-2.8-4C504.4,29.5,503.7,31.5,503.7,33.4z"/>
	<path d="M525.7,26.3h4.6v2.5h0.1c0.7-1.8,2.3-2.8,4.4-2.8c0.4,0,0.8,0,1.1,0.1v4.3c-0.6-0.2-1.2-0.3-1.8-0.3
		c-2.4,0-3.6,1.6-3.6,3.4v7.2h-4.8V26.3z"/>
	<path d="M537.3,30.8c0.1-1.9,1-3.1,2.3-3.9c1.3-0.7,3-1,4.6-1c3.4,0,6.8,0.8,6.8,4.9v6.4c0,1.2,0,2.6,0.6,3.7h-4.8
		c-0.2-0.4-0.2-0.9-0.3-1.4c-1.2,1.3-3.1,1.8-4.8,1.8c-2.8,0-5-1.4-5-4.4c0-4.7,5.2-4.4,8.5-5c0.8-0.2,1.3-0.4,1.3-1.3
		c0-1.1-1.3-1.5-2.3-1.5c-1.3,0-2.2,0.6-2.4,1.8H537.3z M543.4,38.3c2.3,0,3-1.3,2.9-4.3c-0.7,0.4-1.9,0.5-2.9,0.8
		c-1.1,0.3-2,0.7-2,1.8C541.5,37.8,542.4,38.3,543.4,38.3z"/>
	<path d="M554.1,26.3h4.6v2h0.1c0.9-1.5,2.8-2.4,4.6-2.4c4.8,0,5.2,3.5,5.2,5.6v9.3h-4.8v-7c0-2,0.2-4-2.4-4c-1.8,0-2.6,1.5-2.6,3.1
		v7.9h-4.8V26.3z"/>
	<path d="M571.7,20.8h4.8v10.3l4.3-4.8h5.5l-5.3,5.5l6,9h-5.7l-3.6-5.9l-1.2,1.2v4.6h-4.8V20.8z"/>
	<path d="M605.9,29.4H603V36c0,1.1,0.7,1.4,1.7,1.4c0.4,0,0.8-0.1,1.2-0.1v3.5c-0.9,0-1.7,0.1-2.6,0.1c-4.1,0-5.1-1.2-5.1-5.1v-6.5
		h-2.4v-3.1h2.4v-4.4h4.8v4.4h2.9V29.4z"/>
	<path d="M608,20.8h4.8v7.4h0.1c0.7-1.5,2.7-2.4,4.4-2.4c4.8,0,5.2,3.5,5.2,5.6v9.3h-4.8v-7c0-2,0.2-4-2.4-4c-1.8,0-2.6,1.5-2.6,3.1
		v7.9H608V20.8z"/>
	<path d="M630.6,24.5h-4.8v-3.6h4.8V24.5z M625.9,26.3h4.8v14.5h-4.8V26.3z"/>
	<path d="M634.1,26.3h4.6v2.5h0.1c0.7-1.8,2.3-2.8,4.4-2.8c0.4,0,0.8,0,1.1,0.1v4.3c-0.6-0.2-1.2-0.3-1.8-0.3
		c-2.4,0-3.6,1.6-3.6,3.4v7.2h-4.8V26.3z"/>
	<path d="M659.8,40.8h-4.5v-1.7h-0.1c-0.9,1.4-2.3,2.1-4,2.1c-4.6,0-6.5-3.9-6.5-8c0-3.8,2-7.4,6.1-7.4c1.8,0,3.2,0.7,4.1,2h0.1v-7
		h4.8V40.8z M649.5,33.4c0,2,0.7,4.2,2.9,4.2c2.3,0,2.8-2.2,2.8-4.1c0-2.1-0.8-4-2.8-4C650.2,29.5,649.5,31.5,649.5,33.4z"/>
	<path d="M30.4,56h-4.8v-3.6h4.8V56z M25.6,57.8h4.8v14.5h-4.8V57.8z"/>
	<path d="M33.7,57.8h4.6v2h0.1c0.9-1.5,2.8-2.4,4.6-2.4c4.8,0,5.2,3.5,5.2,5.6v9.3h-4.8v-7c0-2,0.2-4-2.4-4c-1.8,0-2.6,1.5-2.6,3.1
		v7.9h-4.8V57.8z"/>
	<path d="M73.1,70.6c0,2.4-0.4,6.9-7.3,6.9c-3.4,0-6.6-0.8-7.1-4.6h4.8c0.1,0.6,0.4,1,0.8,1.3c0.4,0.2,1,0.3,1.7,0.3
		c2.3,0,2.5-1.6,2.5-3.4v-1.4h-0.1c-0.9,1.3-2.3,2.1-3.9,2.1c-4.4,0-6.4-3.1-6.4-7.2c0-3.9,2.3-7.1,6.4-7.1c1.7,0,3.1,0.8,3.9,2.2
		h0.1v-1.8h4.6V70.6z M65.7,61c-2.1,0-2.8,1.8-2.8,3.6c0,1.7,0.8,3.4,2.7,3.4c2,0,2.9-1.6,2.9-3.4C68.6,62.8,67.9,61,65.7,61z"/>
	<path d="M76.3,57.8H81v2.5H81c0.7-1.8,2.3-2.8,4.4-2.8c0.4,0,0.8,0,1.1,0.1V62c-0.6-0.2-1.2-0.3-1.8-0.3c-2.4,0-3.6,1.6-3.6,3.4
		v7.2h-4.8V57.8z"/>
	<path d="M91.6,66.2c0.1,2,1.2,3.3,3.2,3.3c1.1,0,2.3-0.5,2.7-1.6h4.5c-0.9,3.4-4,4.8-7.2,4.8c-4.7,0-8-2.9-8-7.7
		c0-4.5,3.6-7.6,7.8-7.6c5.2,0,7.8,3.9,7.6,8.8H91.6z M97.6,63.6c-0.1-1.6-1.2-3-2.8-3c-1.7,0-2.8,1.2-3.1,3H97.6z"/>
	<path d="M108.8,66.2c0.1,2,1.2,3.3,3.2,3.3c1.1,0,2.3-0.5,2.7-1.6h4.5c-0.9,3.4-4,4.8-7.2,4.8c-4.7,0-8-2.9-8-7.7
		c0-4.5,3.6-7.6,7.8-7.6c5.2,0,7.8,3.9,7.6,8.8H108.8z M114.7,63.6c-0.1-1.6-1.2-3-2.8-3c-1.7,0-2.8,1.2-3.1,3H114.7z"/>
	<path d="M121.8,57.8h4.6v2h0.1c0.9-1.5,2.8-2.4,4.6-2.4c4.8,0,5.2,3.5,5.2,5.6v9.3h-4.8v-7c0-2,0.2-4-2.4-4c-1.8,0-2.6,1.5-2.6,3.1
		v7.9h-4.8V57.8z"/>
	<path d="M139.4,52.3h4.8v7.4h0.1c0.7-1.5,2.7-2.4,4.4-2.4c4.8,0,5.2,3.5,5.2,5.6v9.3h-4.8v-7c0-2,0.2-4-2.4-4
		c-1.8,0-2.6,1.5-2.6,3.1v7.9h-4.8V52.3z"/>
	<path d="M164,57.4c4.5,0,7.7,3.3,7.7,7.7s-3.2,7.7-7.7,7.7s-7.6-3.3-7.6-7.7S159.5,57.4,164,57.4z M164,69.1c2.2,0,2.9-2.2,2.9-4
		S166.2,61,164,61s-2.9,2.2-2.9,4.1S161.8,69.1,164,69.1z"/>
	<path d="M188.6,72.3H184v-2H184c-0.9,1.5-2.7,2.4-4.4,2.4c-4.2,0-5.4-2.4-5.4-6.2v-8.7h4.8v8.4c0,1.9,0.8,2.6,2.4,2.6
		c1,0,2.6-0.7,2.6-3.2v-7.8h4.8V72.3z"/>
	<path d="M195.5,67.5c0,0.7,0.3,1.3,0.8,1.6c0.4,0.3,1.1,0.5,1.8,0.5c0.9,0,2.2-0.4,2.2-1.5c0-1.1-1.5-1.3-2.3-1.5
		c-3-0.8-6.7-0.8-6.7-4.8c0-3.5,3.8-4.5,6.6-4.5c3.2,0,6.5,0.9,6.7,4.7h-4.4c0-0.6-0.2-1-0.6-1.3c-0.4-0.3-0.9-0.4-1.5-0.4
		c-0.8,0-2,0.1-2,1.1c0,1.4,3.2,1.6,5.4,2.1c2.9,0.6,3.7,2.7,3.7,3.9c0,3.9-3.7,5.2-7,5.2c-3.4,0-7-1.1-7.1-5.2H195.5z"/>
	<path d="M211.5,66.2c0.1,2,1.2,3.3,3.2,3.3c1.1,0,2.3-0.5,2.7-1.6h4.5c-0.9,3.4-4,4.8-7.2,4.8c-4.7,0-8-2.9-8-7.7
		c0-4.5,3.6-7.6,7.8-7.6c5.2,0,7.8,3.9,7.6,8.8H211.5z M217.4,63.6c-0.1-1.6-1.2-3-2.8-3c-1.7,0-2.8,1.2-3.1,3H217.4z"/>
	<path d="M246.3,70.6c0,2.4-0.4,6.9-7.3,6.9c-3.4,0-6.6-0.8-7.1-4.6h4.8c0.1,0.6,0.4,1,0.8,1.3c0.4,0.2,1,0.3,1.7,0.3
		c2.3,0,2.5-1.6,2.5-3.4v-1.4h-0.1c-0.9,1.3-2.3,2.1-3.9,2.1c-4.4,0-6.4-3.1-6.4-7.2c0-3.9,2.3-7.1,6.4-7.1c1.7,0,3.1,0.8,3.9,2.2
		h0.1v-1.8h4.6V70.6z M238.9,61c-2.1,0-2.8,1.8-2.8,3.6c0,1.7,0.8,3.4,2.7,3.4c2,0,2.9-1.6,2.9-3.4C241.8,62.8,241,61,238.9,61z"/>
	<path d="M249.1,62.3c0.1-1.9,1-3.1,2.3-3.9c1.3-0.7,3-1,4.6-1c3.4,0,6.8,0.8,6.8,4.9v6.4c0,1.2,0,2.6,0.6,3.7h-4.8
		c-0.2-0.4-0.2-0.9-0.3-1.4c-1.2,1.3-3.1,1.8-4.8,1.8c-2.8,0-5-1.4-5-4.4c0-4.7,5.2-4.4,8.5-5c0.8-0.2,1.3-0.4,1.3-1.3
		c0-1.1-1.3-1.5-2.3-1.5c-1.3,0-2.2,0.6-2.4,1.8H249.1z M255.3,69.8c2.3,0,3-1.3,2.9-4.3c-0.7,0.4-1.9,0.5-2.9,0.8
		c-1.1,0.3-2,0.7-2,1.8C253.3,69.3,254.2,69.8,255.3,69.8z"/>
	<path d="M269.6,67.5c0,0.7,0.3,1.3,0.8,1.6c0.4,0.3,1.1,0.5,1.8,0.5c0.9,0,2.2-0.4,2.2-1.5c0-1.1-1.5-1.3-2.3-1.5
		c-3-0.8-6.7-0.8-6.7-4.8c0-3.5,3.8-4.5,6.6-4.5c3.2,0,6.5,0.9,6.7,4.7h-4.4c0-0.6-0.2-1-0.6-1.3c-0.4-0.3-0.9-0.4-1.5-0.4
		c-0.8,0-2,0.1-2,1.1c0,1.4,3.2,1.6,5.4,2.1c2.9,0.6,3.7,2.7,3.7,3.9c0,3.9-3.7,5.2-7,5.2c-3.4,0-7-1.1-7.1-5.2H269.6z"/>
	<path d="M293.2,66.2c0.1,2,1.2,3.3,3.2,3.3c1.1,0,2.3-0.5,2.7-1.6h4.5c-0.9,3.4-4,4.8-7.2,4.8c-4.7,0-8-2.9-8-7.7
		c0-4.5,3.6-7.6,7.8-7.6c5.2,0,7.8,3.9,7.6,8.8H293.2z M299.2,63.6c-0.1-1.6-1.2-3-2.8-3c-1.7,0-2.8,1.2-3.1,3H299.2z"/>
	<path d="M306.3,57.8h4.6v2h0.1c0.9-1.5,2.4-2.4,4.2-2.4c1.8,0,3.4,0.6,4.2,2.4c1.1-1.5,2.6-2.4,4.5-2.4c4.6,0,5.1,3.5,5.1,6.3v8.7
		h-4.8v-8.5c0-1.6-0.8-2.5-2-2.5c-2,0-2.2,1.6-2.2,3.9v7.1h-4.8v-8.3c0-1.7-0.5-2.8-1.8-2.8c-1.7,0-2.4,1-2.4,3.9v7.1h-4.8V57.8z"/>
	<path d="M337.2,56h-4.8v-3.6h4.8V56z M332.4,57.8h4.8v14.5h-4.8V57.8z"/>
	<path d="M344.2,67.5c0,0.7,0.3,1.3,0.8,1.6c0.4,0.3,1.1,0.5,1.8,0.5c0.9,0,2.2-0.4,2.2-1.5c0-1.1-1.5-1.3-2.3-1.5
		c-3-0.8-6.7-0.8-6.7-4.8c0-3.5,3.8-4.5,6.6-4.5c3.2,0,6.5,0.9,6.7,4.7h-4.4c0-0.6-0.2-1-0.6-1.3c-0.4-0.3-0.9-0.4-1.5-0.4
		c-0.8,0-2,0.1-2,1.1c0,1.4,3.2,1.6,5.4,2.1c2.9,0.6,3.7,2.7,3.7,3.9c0,3.9-3.7,5.2-7,5.2c-3.4,0-7-1.1-7.1-5.2H344.2z"/>
	<path d="M359.8,67.5c0,0.7,0.3,1.3,0.8,1.6c0.4,0.3,1.1,0.5,1.8,0.5c0.9,0,2.2-0.4,2.2-1.5c0-1.1-1.5-1.3-2.3-1.5
		c-3-0.8-6.7-0.8-6.7-4.8c0-3.5,3.8-4.5,6.6-4.5c3.2,0,6.5,0.9,6.7,4.7h-4.4c0-0.6-0.2-1-0.6-1.3c-0.4-0.3-0.9-0.4-1.5-0.4
		c-0.8,0-2,0.1-2,1.1c0,1.4,3.2,1.6,5.4,2.1c2.9,0.6,3.7,2.7,3.7,3.9c0,3.9-3.7,5.2-7,5.2c-3.4,0-7-1.1-7.1-5.2H359.8z"/>
	<path d="M376.6,56h-4.8v-3.6h4.8V56z M371.8,57.8h4.8v14.5h-4.8V57.8z"/>
	<path d="M386.9,57.4c4.5,0,7.7,3.3,7.7,7.7s-3.2,7.7-7.7,7.7s-7.6-3.3-7.6-7.7S382.4,57.4,386.9,57.4z M386.9,69.1
		c2.2,0,2.9-2.2,2.9-4s-0.7-4.1-2.9-4.1s-2.9,2.2-2.9,4.1S384.7,69.1,386.9,69.1z"/>
	<path d="M397,57.8h4.6v2h0.1c0.9-1.5,2.8-2.4,4.6-2.4c4.8,0,5.2,3.5,5.2,5.6v9.3h-4.8v-7c0-2,0.2-4-2.4-4c-1.8,0-2.6,1.5-2.6,3.1
		v7.9H397V57.8z"/>
	<path d="M418.4,67.5c0,0.7,0.3,1.3,0.8,1.6c0.4,0.3,1.1,0.5,1.8,0.5c0.9,0,2.2-0.4,2.2-1.5c0-1.1-1.5-1.3-2.3-1.5
		c-3-0.8-6.7-0.8-6.7-4.8c0-3.5,3.8-4.5,6.6-4.5c3.2,0,6.5,0.9,6.7,4.7H423c0-0.6-0.2-1-0.6-1.3c-0.4-0.3-0.9-0.4-1.5-0.4
		c-0.8,0-2,0.1-2,1.1c0,1.4,3.2,1.6,5.4,2.1c2.9,0.6,3.7,2.7,3.7,3.9c0,3.9-3.7,5.2-7,5.2c-3.4,0-7-1.1-7.1-5.2H418.4z"/>
	<path d="M430.5,67.1h5.2v5.2h-5.2V67.1z"/>
</g>
<g>
	<g>
		<path d="M36.9,104.7h-1.3l-0.3-1.3c-1.1,1.2-2,1.6-3.4,1.6c-3.4,0-5.5-2.7-5.5-6s2-6,5.5-6c2.5,0,4.6,1.3,4.9,3.9h-2
			c-0.2-1.5-1.5-2.3-2.9-2.3c-2.4,0-3.5,2.2-3.5,4.4s1,4.4,3.5,4.4c2,0,3.2-1.2,3.2-3.1h-3v-1.5h4.9V104.7z"/>
		<path d="M38.8,93.3h1.8V95h-1.8V93.3z M38.8,96.5h1.8v8.3h-1.8V96.5z"/>
		<path d="M50.3,104.3c0,2.5-1.5,3.7-4.1,3.7c-1.7,0-3.5-0.6-3.7-2.6h1.8c0.2,1,1.1,1.2,2,1.2c1.5,0,2.1-0.8,2.1-2.1v-1.3h0
			c-0.5,0.9-1.5,1.5-2.5,1.5c-2.6,0-3.7-2-3.7-4.4c0-2.2,1.4-4.1,3.7-4.1c1,0,2,0.4,2.4,1.4h0v-1.1h1.8V104.3z M48.5,100.4
			c0-1.4-0.6-2.7-2.2-2.7c-1.6,0-2.2,1.5-2.2,2.9c0,1.4,0.7,2.7,2.2,2.7C47.9,103.3,48.5,101.8,48.5,100.4z"/>
		<path d="M59.1,102.9c0,0.4,0.1,0.6,0.4,0.6c0.1,0,0.3,0,0.4,0v1.3c-0.3,0.1-0.8,0.2-1.2,0.2c-0.7,0-1.3-0.3-1.4-1
			c-0.7,0.7-1.9,1-2.9,1c-1.5,0-2.8-0.8-2.8-2.4c0-2.1,1.6-2.4,3.2-2.6c1.3-0.2,2.5-0.1,2.5-1.2c0-0.9-1-1.1-1.7-1.1
			c-1,0-1.7,0.4-1.8,1.3H52c0.1-2.1,1.9-2.8,3.8-2.8c1.6,0,3.3,0.7,3.3,2.4V102.9z M57.2,100.6c-0.6,0.4-1.4,0.4-2.2,0.5
			c-0.8,0.1-1.5,0.4-1.5,1.4c0,0.8,1,1.1,1.7,1.1c0.8,0,2-0.4,2-1.6V100.6z"/>
		<path d="M60.2,96.5h1.4V94h1.8v2.5H65v1.4h-1.6v4.4c0,0.8,0.1,1.1,0.9,1.1c0.3,0,0.5,0,0.8-0.1v1.4c-0.4,0-0.8,0.1-1.2,0.1
			c-1.9,0-2.3-0.7-2.3-2.1v-4.9h-1.4V96.5z"/>
		<path d="M66,100.6c0-2.5,1.5-4.4,4.2-4.4s4.2,1.8,4.2,4.4c0,2.5-1.5,4.4-4.2,4.4S66,103.1,66,100.6z M72.5,100.6
			c0-1.4-0.7-2.9-2.4-2.9s-2.4,1.5-2.4,2.9c0,1.4,0.7,2.9,2.4,2.9S72.5,102,72.5,100.6z"/>
		<path d="M75.8,96.5h1.7v1.2l0,0c0.5-0.9,1.5-1.5,2.6-1.5c1.8,0,2.9,1,2.9,2.8v5.7h-1.8v-5.2c0-1.3-0.5-1.9-1.6-1.9
			c-1.2,0-2,1-2,2.2v4.9h-1.8V96.5z"/>
		<path d="M86.4,102.1c0.1,1.1,0.9,1.4,1.9,1.4c0.7,0,1.9-0.1,1.8-1.1c0-1-1.4-1.1-2.7-1.4c-1.3-0.3-2.7-0.8-2.7-2.4
			c0-1.8,2-2.4,3.5-2.4c1.7,0,3.2,0.7,3.5,2.5h-1.9c-0.2-0.9-0.9-1.1-1.7-1.1c-0.5,0-1.5,0.1-1.5,0.8c0,0.9,1.3,1,2.7,1.3
			c1.3,0.3,2.7,0.8,2.7,2.4c0,2-2,2.7-3.7,2.7c-2.1,0-3.6-0.9-3.7-2.9H86.4z"/>
		<path d="M97.4,100.6c0-2.5,1.5-4.4,4.2-4.4s4.2,1.8,4.2,4.4c0,2.5-1.5,4.4-4.2,4.4S97.4,103.1,97.4,100.6z M103.9,100.6
			c0-1.4-0.7-2.9-2.4-2.9s-2.4,1.5-2.4,2.9c0,1.4,0.7,2.9,2.4,2.9S103.9,102,103.9,100.6z"/>
		<path d="M106.5,96.5h1.4v-0.7c0-2.1,1.1-2.5,2.3-2.5c0.6,0,1,0,1.3,0.1v1.4c-0.2-0.1-0.5-0.1-0.8-0.1c-0.5,0-0.9,0.2-0.9,0.9v0.8
			h1.6v1.4h-1.6v6.9h-1.8v-6.9h-1.4V96.5z"/>
		<path d="M124.7,96.9c-0.3-1.3-1.2-2.3-2.8-2.3c-2.4,0-3.5,2.2-3.5,4.4s1,4.4,3.5,4.4c1.8,0,2.8-1.3,2.9-3h2
			c-0.2,2.7-2.1,4.6-4.9,4.6c-3.4,0-5.5-2.7-5.5-6s2-6,5.5-6c2.6,0,4.6,1.4,4.9,3.9H124.7z"/>
		<path d="M138.9,99c0,3.3-2,6-5.5,6c-3.4,0-5.5-2.7-5.5-6s2-6,5.5-6C136.9,93,138.9,95.8,138.9,99z M130,99c0,2.2,1,4.4,3.5,4.4
			c2.4,0,3.5-2.2,3.5-4.4s-1-4.4-3.5-4.4C131,94.7,130,96.8,130,99z"/>
		<path d="M144.3,108.5h-4.5c0-1.1,0.6-1.9,1.4-2.5c0.8-0.6,1.9-1.1,2-2.1c0-0.5-0.2-1.2-1.1-1.2c-0.8,0-1.1,0.7-1.1,1.6H140
			c0-1.4,0.8-2.5,2.2-2.5c1.6,0,2.1,1.2,2.1,2c0,1-0.7,1.7-1.5,2.2c-0.8,0.5-1.5,0.9-1.7,1.5h3.2V108.5z"/>
		<path d="M151.5,101.1c0,1.3,0.7,2.4,2.2,2.4c1.1,0,1.7-0.5,2-1.4h1.7c-0.4,1.8-1.9,2.8-3.7,2.8c-2.6,0-4-1.8-4-4.4
			c0-2.4,1.5-4.4,4-4.4c2.6,0,4.2,2.4,3.9,4.8H151.5z M155.8,99.9c-0.1-1.2-0.8-2.2-2.1-2.2c-1.3,0-2.1,1-2.2,2.2H155.8z"/>
		<path d="M159,96.5h1.7v1.2h0c0.5-0.8,1.2-1.4,2.5-1.4c1,0,2,0.4,2.3,1.4c0.6-0.8,1.4-1.4,2.6-1.4c1.7,0,2.8,0.8,2.8,2.8v5.7h-1.8
			v-4.8c0-1.3-0.1-2.2-1.5-2.2c-1.2,0-1.8,0.8-1.8,2.2v4.9h-1.8v-5.3c0-1.1-0.4-1.7-1.5-1.7c-0.9,0-1.8,0.8-1.8,2.1v4.9H159V96.5z"
			/>
		<path d="M173,93.3h1.8V95H173V93.3z M173,96.5h1.8v8.3H173V96.5z"/>
		<path d="M178.1,102.1c0.1,1.1,0.9,1.4,1.9,1.4c0.7,0,1.9-0.1,1.8-1.1c0-1-1.4-1.1-2.7-1.4c-1.3-0.3-2.7-0.8-2.7-2.4
			c0-1.8,2-2.4,3.5-2.4c1.7,0,3.2,0.7,3.5,2.5h-1.9c-0.2-0.9-0.9-1.1-1.7-1.1c-0.5,0-1.5,0.1-1.5,0.8c0,0.9,1.3,1,2.7,1.3
			c1.3,0.3,2.7,0.8,2.7,2.4c0,2-2,2.7-3.7,2.7c-2.1,0-3.6-0.9-3.7-2.9H178.1z"/>
		<path d="M186.5,102.1c0.1,1.1,0.9,1.4,1.9,1.4c0.7,0,1.9-0.1,1.8-1.1c0-1-1.4-1.1-2.7-1.4c-1.3-0.3-2.7-0.8-2.7-2.4
			c0-1.8,2-2.4,3.5-2.4c1.7,0,3.2,0.7,3.5,2.5h-1.9c-0.2-0.9-0.9-1.1-1.7-1.1c-0.5,0-1.5,0.1-1.5,0.8c0,0.9,1.3,1,2.7,1.3
			c1.3,0.3,2.7,0.8,2.7,2.4c0,2-2,2.7-3.7,2.7c-2.1,0-3.6-0.9-3.7-2.9H186.5z"/>
		<path d="M193.4,93.3h1.8V95h-1.8V93.3z M193.4,96.5h1.8v8.3h-1.8V96.5z"/>
		<path d="M196.9,100.6c0-2.5,1.5-4.4,4.2-4.4s4.2,1.8,4.2,4.4c0,2.5-1.5,4.4-4.2,4.4S196.9,103.1,196.9,100.6z M203.4,100.6
			c0-1.4-0.7-2.9-2.4-2.9s-2.4,1.5-2.4,2.9c0,1.4,0.7,2.9,2.4,2.9S203.4,102,203.4,100.6z"/>
		<path d="M206.7,96.5h1.7v1.2l0,0c0.5-0.9,1.5-1.5,2.6-1.5c1.8,0,2.9,1,2.9,2.8v5.7h-1.8v-5.2c0-1.3-0.5-1.9-1.6-1.9
			c-1.2,0-2,1-2,2.2v4.9h-1.8V96.5z"/>
		<path d="M217.3,102.1c0.1,1.1,0.9,1.4,1.9,1.4c0.7,0,1.9-0.1,1.8-1.1c0-1-1.4-1.1-2.7-1.4c-1.3-0.3-2.7-0.8-2.7-2.4
			c0-1.8,2-2.4,3.5-2.4c1.7,0,3.2,0.7,3.5,2.5h-1.9c-0.2-0.9-0.9-1.1-1.7-1.1c-0.5,0-1.5,0.1-1.5,0.8c0,0.9,1.3,1,2.7,1.3
			c1.3,0.3,2.7,0.8,2.7,2.4c0,2-2,2.7-3.7,2.7c-2.1,0-3.6-0.9-3.7-2.9H217.3z"/>
		<path d="M228.7,96.5h1.7v1.1h0c0.5-0.9,1.5-1.3,2.6-1.3c2.6,0,3.9,2,3.9,4.4c0,2.2-1.1,4.3-3.6,4.3c-1.1,0-2.2-0.4-2.8-1.3h0v4.1
			h-1.8V96.5z M232.8,97.7c-1.5,0-2.3,1.2-2.3,2.9c0,1.7,0.8,2.9,2.3,2.9c1.7,0,2.3-1.5,2.3-2.9C235.1,99.1,234.3,97.7,232.8,97.7z"
			/>
		<path d="M239.9,101.1c0,1.3,0.7,2.4,2.2,2.4c1.1,0,1.7-0.5,2-1.4h1.7c-0.4,1.8-1.9,2.8-3.7,2.8c-2.6,0-4-1.8-4-4.4
			c0-2.4,1.5-4.4,4-4.4c2.6,0,4.2,2.4,3.9,4.8H239.9z M244.1,99.9c-0.1-1.2-0.8-2.2-2.1-2.2c-1.3,0-2.1,1-2.2,2.2H244.1z"/>
		<path d="M247.3,96.5h1.7v1.6h0c0.2-0.9,1.3-1.8,2.4-1.8c0.4,0,0.5,0,0.7,0V98c-0.3,0-0.5-0.1-0.8-0.1c-1.2,0-2.2,1-2.2,2.8v3.9
			h-1.8V96.5z"/>
		<path d="M256.5,96.5h2l2.2,6.2h0l2.1-6.2h1.9l-3.2,8.7c-0.6,1.5-1,2.8-2.9,2.8c-0.4,0-0.8,0-1.3-0.1v-1.5c0.3,0,0.6,0.1,0.9,0.1
			c0.8,0,1.1-0.4,1.3-1.2l0.2-0.6L256.5,96.5z"/>
		<path d="M267.1,101.1c0,1.3,0.7,2.4,2.2,2.4c1.1,0,1.7-0.5,2-1.4h1.7c-0.4,1.8-1.9,2.8-3.7,2.8c-2.6,0-4-1.8-4-4.4
			c0-2.4,1.5-4.4,4-4.4c2.6,0,4.2,2.4,3.9,4.8H267.1z M271.4,99.9c-0.1-1.2-0.8-2.2-2.1-2.2c-1.3,0-2.1,1-2.2,2.2H271.4z"/>
		<path d="M281.5,102.9c0,0.4,0.1,0.6,0.4,0.6c0.1,0,0.3,0,0.4,0v1.3c-0.3,0.1-0.8,0.2-1.2,0.2c-0.7,0-1.3-0.3-1.4-1
			c-0.7,0.7-1.9,1-2.9,1c-1.5,0-2.8-0.8-2.8-2.4c0-2.1,1.6-2.4,3.2-2.6c1.3-0.2,2.5-0.1,2.5-1.2c0-0.9-1-1.1-1.7-1.1
			c-1,0-1.7,0.4-1.8,1.3h-1.8c0.1-2.1,1.9-2.8,3.8-2.8c1.6,0,3.3,0.7,3.3,2.4V102.9z M279.7,100.6c-0.6,0.4-1.4,0.4-2.2,0.5
			c-0.8,0.1-1.5,0.4-1.5,1.4c0,0.8,1,1.1,1.7,1.1c0.8,0,2-0.4,2-1.6V100.6z"/>
		<path d="M283.5,96.5h1.7v1.6h0c0.2-0.9,1.3-1.8,2.4-1.8c0.4,0,0.5,0,0.7,0V98c-0.3,0-0.5-0.1-0.8-0.1c-1.2,0-2.2,1-2.2,2.8v3.9
			h-1.8V96.5z"/>
	</g>
</g>
<line class="st1" x1="696.7" y1="425.2" x2="105.4" y2="425.2"/>
<g>
	<g>
		<path d="M153.1,436c-0.1-0.2-0.3-0.5-0.6-0.6s-0.5-0.3-0.8-0.4c-0.3-0.1-0.6-0.2-0.9-0.2c-0.6,0-1,0.1-1.4,0.3s-0.7,0.5-1,0.9
			c-0.2,0.4-0.4,0.8-0.5,1.3c-0.1,0.5-0.2,1-0.2,1.5c0,0.5,0.1,0.9,0.2,1.4s0.3,0.9,0.5,1.2c0.2,0.4,0.6,0.7,1,0.9s0.9,0.3,1.4,0.3
			c0.8,0,1.4-0.2,1.8-0.7c0.4-0.5,0.7-1.1,0.8-1.9h2.4c-0.1,0.7-0.2,1.4-0.5,1.9s-0.6,1.1-1.1,1.5c-0.4,0.4-1,0.7-1.5,0.9
			c-0.6,0.2-1.2,0.3-1.9,0.3c-0.9,0-1.7-0.2-2.4-0.5c-0.7-0.3-1.3-0.7-1.8-1.3c-0.5-0.5-0.8-1.2-1.1-1.9s-0.4-1.5-0.4-2.3
			c0-0.9,0.1-1.6,0.4-2.4s0.6-1.4,1.1-1.9c0.5-0.5,1.1-1,1.8-1.3c0.7-0.3,1.5-0.5,2.4-0.5c0.6,0,1.2,0.1,1.8,0.3
			c0.6,0.2,1.1,0.4,1.5,0.8s0.8,0.8,1.1,1.3c0.3,0.5,0.5,1.1,0.5,1.8h-2.4C153.3,436.5,153.3,436.2,153.1,436z"/>
		<path d="M159.7,432.9v4.3h0c0.3-0.5,0.7-0.8,1.1-1s0.9-0.3,1.3-0.3c0.6,0,1.1,0.1,1.5,0.2c0.4,0.2,0.7,0.4,0.9,0.7
			c0.2,0.3,0.4,0.7,0.5,1.1c0.1,0.4,0.1,0.9,0.1,1.4v5.1h-2.3v-4.7c0-0.7-0.1-1.2-0.3-1.5c-0.2-0.3-0.6-0.5-1.1-0.5
			c-0.6,0-1.1,0.2-1.3,0.6c-0.3,0.4-0.4,1-0.4,1.8v4.3h-2.3v-11.4H159.7z"/>
		<path d="M167,434.8v-1.9h2.3v1.9H167z M169.3,436.1v8.3H167v-8.3H169.3z"/>
		<path d="M173.3,436.1v1.2h0c0.3-0.5,0.7-0.8,1.1-1c0.5-0.2,0.9-0.3,1.4-0.3c0.6,0,1.1,0.1,1.5,0.2c0.4,0.2,0.7,0.4,0.9,0.7
			c0.2,0.3,0.4,0.7,0.5,1.1c0.1,0.4,0.1,0.9,0.1,1.4v5.1h-2.3v-4.7c0-0.7-0.1-1.2-0.3-1.5c-0.2-0.3-0.6-0.5-1.1-0.5
			c-0.6,0-1.1,0.2-1.3,0.6c-0.3,0.4-0.4,1-0.4,1.8v4.3h-2.3v-8.3H173.3z"/>
		<path d="M180.7,438.6c0-0.5,0.2-1,0.4-1.3c0.2-0.4,0.5-0.6,0.9-0.8c0.4-0.2,0.8-0.4,1.2-0.5c0.5-0.1,0.9-0.1,1.4-0.1
			c0.4,0,0.8,0,1.3,0.1s0.8,0.2,1.2,0.3c0.4,0.2,0.6,0.4,0.9,0.7c0.2,0.3,0.3,0.7,0.3,1.2v4.3c0,0.4,0,0.7,0.1,1.1
			c0,0.3,0.1,0.6,0.2,0.8h-2.3c0-0.1-0.1-0.3-0.1-0.4c0-0.1,0-0.3-0.1-0.4c-0.4,0.4-0.8,0.6-1.3,0.8c-0.5,0.1-1,0.2-1.5,0.2
			c-0.4,0-0.8,0-1.1-0.1c-0.3-0.1-0.6-0.2-0.9-0.4c-0.3-0.2-0.5-0.5-0.6-0.8c-0.1-0.3-0.2-0.7-0.2-1.1c0-0.5,0.1-0.9,0.2-1.2
			s0.4-0.5,0.6-0.7c0.3-0.2,0.6-0.3,0.9-0.4s0.7-0.2,1-0.2c0.3-0.1,0.7-0.1,1-0.1c0.3,0,0.6-0.1,0.9-0.1c0.3-0.1,0.5-0.2,0.6-0.3
			c0.1-0.1,0.2-0.3,0.2-0.5c0-0.2,0-0.4-0.1-0.6c-0.1-0.1-0.2-0.3-0.3-0.3c-0.1-0.1-0.3-0.1-0.5-0.2c-0.2,0-0.4,0-0.6,0
			c-0.4,0-0.8,0.1-1.1,0.3c-0.3,0.2-0.4,0.5-0.4,1H180.7z M185.9,440.3c-0.1,0.1-0.2,0.2-0.4,0.2c-0.1,0-0.3,0.1-0.5,0.1
			c-0.2,0-0.3,0.1-0.5,0.1c-0.2,0-0.4,0-0.5,0.1c-0.2,0-0.3,0.1-0.5,0.1c-0.2,0.1-0.3,0.1-0.4,0.2c-0.1,0.1-0.2,0.2-0.3,0.3
			c-0.1,0.1-0.1,0.3-0.1,0.5c0,0.2,0,0.4,0.1,0.5c0.1,0.1,0.2,0.2,0.3,0.3s0.3,0.1,0.4,0.2c0.2,0,0.3,0,0.5,0c0.4,0,0.8-0.1,1-0.2
			s0.4-0.3,0.5-0.5s0.2-0.4,0.2-0.6c0-0.2,0-0.4,0-0.5V440.3z"/>
	</g>
</g>
<g>
	<rect x="129.7" y="140.9" class="st2" width="74.4" height="284.3"/>
	<g>
		<g>
			<path class="st0" d="M155.8,165.9v-7h-2.7v-1.7c0.4,0,0.7,0,1.1-0.1c0.4-0.1,0.7-0.2,1-0.4c0.3-0.2,0.5-0.4,0.7-0.7
				s0.3-0.6,0.4-1h1.7v10.8H155.8z"/>
			<path class="st0" d="M160.6,157.8c0.2-0.7,0.5-1.3,0.9-1.7s0.8-0.7,1.3-0.9s1-0.3,1.5-0.3c0.5,0,1.1,0.1,1.5,0.3
				c0.5,0.2,0.9,0.5,1.3,0.9s0.7,1,0.9,1.7c0.2,0.7,0.3,1.6,0.3,2.6c0,1.1-0.1,2-0.3,2.7c-0.2,0.7-0.5,1.3-0.9,1.7s-0.8,0.7-1.3,0.9
				c-0.5,0.2-1,0.3-1.5,0.3c-0.5,0-1-0.1-1.5-0.3s-0.9-0.5-1.3-0.9s-0.6-1-0.9-1.7c-0.2-0.7-0.3-1.6-0.3-2.7
				C160.3,159.4,160.4,158.5,160.6,157.8z M162.5,161.6c0,0.4,0.1,0.9,0.2,1.3c0.1,0.4,0.3,0.8,0.5,1c0.2,0.3,0.6,0.4,1,0.4
				c0.5,0,0.8-0.1,1-0.4c0.2-0.3,0.4-0.6,0.5-1c0.1-0.4,0.2-0.8,0.2-1.3c0-0.4,0-0.8,0-1.1c0-0.2,0-0.4,0-0.7c0-0.3,0-0.5-0.1-0.8
				s-0.1-0.6-0.2-0.8c-0.1-0.3-0.2-0.5-0.3-0.7c-0.1-0.2-0.3-0.4-0.5-0.5s-0.5-0.2-0.8-0.2c-0.3,0-0.5,0.1-0.7,0.2
				c-0.2,0.1-0.4,0.3-0.5,0.5c-0.1,0.2-0.2,0.5-0.3,0.7c-0.1,0.3-0.1,0.5-0.2,0.8c0,0.3,0,0.5-0.1,0.8c0,0.3,0,0.5,0,0.7
				C162.5,160.8,162.5,161.2,162.5,161.6z"/>
			<path class="st0" d="M171.9,163.6v2.4h-2.4v-2.4H171.9z"/>
			<path class="st0" d="M174,157.6c0.2-0.5,0.4-1,0.7-1.4c0.3-0.4,0.7-0.7,1.2-0.9c0.5-0.2,1.1-0.3,1.7-0.3c0.5,0,1,0.1,1.4,0.2
				c0.4,0.2,0.8,0.4,1.2,0.7c0.3,0.3,0.6,0.6,0.8,1.1c0.2,0.4,0.3,0.9,0.3,1.4c0,0.5-0.1,1-0.3,1.4c-0.2,0.4-0.4,0.7-0.7,1
				c-0.3,0.3-0.6,0.6-1,0.8c-0.4,0.2-0.7,0.5-1.1,0.7c-0.4,0.2-0.7,0.5-1.1,0.8c-0.3,0.3-0.7,0.6-0.9,1h5.1v1.9h-7.9
				c0-0.6,0.1-1.2,0.3-1.6c0.2-0.5,0.4-0.9,0.7-1.2s0.7-0.7,1.1-1c0.4-0.3,0.9-0.6,1.3-0.9c0.2-0.2,0.5-0.3,0.8-0.5s0.5-0.4,0.7-0.6
				c0.2-0.2,0.4-0.4,0.6-0.7c0.1-0.3,0.2-0.6,0.2-0.9c0-0.5-0.2-0.9-0.5-1.2c-0.3-0.3-0.7-0.4-1.2-0.4c-0.3,0-0.6,0.1-0.8,0.2
				c-0.2,0.1-0.4,0.3-0.5,0.6c-0.1,0.2-0.2,0.5-0.3,0.8c-0.1,0.3-0.1,0.6-0.1,0.9h-2.1C173.8,158.7,173.9,158.1,174,157.6z"/>
		</g>
	</g>
</g>
<g>
	<g>
		<path d="M281.2,443.5c-0.9,0.8-2.1,1.1-3.6,1.1c-1.5,0-2.7-0.4-3.6-1.1c-0.8-0.7-1.3-1.9-1.3-3.5v-7.1h2.5v7.1
			c0,0.3,0,0.6,0.1,0.9c0.1,0.3,0.2,0.6,0.3,0.8c0.2,0.2,0.4,0.4,0.7,0.6c0.3,0.1,0.7,0.2,1.2,0.2c0.9,0,1.5-0.2,1.9-0.6
			c0.3-0.4,0.5-1,0.5-1.9v-7.1h2.5v7.1C282.5,441.6,282.1,442.7,281.2,443.5z"/>
		<path d="M286.7,436.1v1.2h0c0.3-0.5,0.7-0.8,1.1-1c0.5-0.2,0.9-0.3,1.4-0.3c0.6,0,1.1,0.1,1.5,0.2c0.4,0.2,0.7,0.4,0.9,0.7
			c0.2,0.3,0.4,0.7,0.5,1.1c0.1,0.4,0.1,0.9,0.1,1.4v5.1H290v-4.7c0-0.7-0.1-1.2-0.3-1.5c-0.2-0.3-0.6-0.5-1.1-0.5
			c-0.6,0-1.1,0.2-1.3,0.6c-0.3,0.4-0.4,1-0.4,1.8v4.3h-2.3v-8.3H286.7z"/>
		<path d="M294.1,434.8v-1.9h2.3v1.9H294.1z M296.4,436.1v8.3h-2.3v-8.3H296.4z"/>
		<path d="M302.8,436.1v1.5h-1.7v4.1c0,0.4,0.1,0.6,0.2,0.8c0.1,0.1,0.4,0.2,0.8,0.2c0.1,0,0.2,0,0.4,0c0.1,0,0.2,0,0.3,0v1.8
			c-0.2,0-0.4,0.1-0.6,0.1c-0.2,0-0.5,0-0.7,0c-0.4,0-0.7,0-1-0.1s-0.6-0.1-0.8-0.3c-0.2-0.1-0.4-0.3-0.6-0.6s-0.2-0.6-0.2-1v-4.9
			h-1.4v-1.5h1.4v-2.5h2.3v2.5H302.8z"/>
		<path d="M306.3,442.4c0.3,0.3,0.8,0.5,1.5,0.5c0.5,0,0.9-0.1,1.2-0.3c0.3-0.2,0.5-0.5,0.6-0.7h2c-0.3,1-0.8,1.7-1.5,2.1
			s-1.5,0.6-2.4,0.6c-0.7,0-1.2-0.1-1.8-0.3c-0.5-0.2-1-0.5-1.3-0.9c-0.4-0.4-0.6-0.8-0.8-1.4s-0.3-1.1-0.3-1.8
			c0-0.6,0.1-1.2,0.3-1.7c0.2-0.5,0.5-1,0.9-1.4c0.4-0.4,0.8-0.7,1.3-0.9c0.5-0.2,1.1-0.3,1.7-0.3c0.7,0,1.3,0.1,1.8,0.4
			c0.5,0.3,1,0.6,1.3,1.1c0.3,0.5,0.6,1,0.7,1.6s0.2,1.2,0.2,1.8h-6C305.8,441.5,306,442,306.3,442.4z M308.9,438
			c-0.3-0.3-0.7-0.4-1.2-0.4c-0.4,0-0.7,0.1-0.9,0.2c-0.2,0.1-0.4,0.3-0.6,0.5c-0.1,0.2-0.2,0.4-0.3,0.6c-0.1,0.2-0.1,0.4-0.1,0.5
			h3.7C309.4,438.7,309.2,438.3,308.9,438z"/>
		<path d="M319.1,443.3c-0.3,0.4-0.6,0.8-1,1c-0.4,0.2-0.9,0.3-1.5,0.3c-0.6,0-1.2-0.1-1.6-0.4c-0.5-0.2-0.9-0.6-1.2-1
			c-0.3-0.4-0.5-0.9-0.7-1.4c-0.2-0.5-0.2-1.1-0.2-1.7c0-0.6,0.1-1.1,0.2-1.6c0.2-0.5,0.4-1,0.7-1.4c0.3-0.4,0.7-0.7,1.1-1
			c0.5-0.2,1-0.4,1.6-0.4c0.5,0,1,0.1,1.4,0.3c0.4,0.2,0.8,0.5,1,0.9h0v-4.2h2.3v11.4h-2.2L319.1,443.3L319.1,443.3z M319,439.2
			c-0.1-0.3-0.2-0.6-0.3-0.8c-0.2-0.2-0.4-0.4-0.6-0.6s-0.6-0.2-0.9-0.2c-0.4,0-0.7,0.1-0.9,0.2s-0.5,0.3-0.6,0.6
			c-0.2,0.2-0.3,0.5-0.3,0.8s-0.1,0.6-0.1,1c0,0.3,0,0.6,0.1,1c0.1,0.3,0.2,0.6,0.4,0.9c0.2,0.3,0.4,0.5,0.6,0.6s0.6,0.2,0.9,0.2
			c0.4,0,0.7-0.1,0.9-0.2c0.3-0.1,0.5-0.3,0.6-0.6c0.1-0.3,0.3-0.5,0.3-0.9c0.1-0.3,0.1-0.7,0.1-1C319.1,439.8,319,439.5,319,439.2z
			"/>
		<path d="M329.6,441.5c0.1,0.3,0.3,0.5,0.6,0.6s0.5,0.3,0.8,0.4s0.6,0.1,1,0.1c0.2,0,0.5,0,0.7-0.1c0.3,0,0.5-0.1,0.7-0.2
			c0.2-0.1,0.4-0.3,0.6-0.4s0.2-0.4,0.2-0.7c0-0.3-0.1-0.6-0.3-0.8c-0.2-0.2-0.5-0.4-0.8-0.5s-0.7-0.2-1.1-0.3s-0.8-0.2-1.2-0.3
			c-0.4-0.1-0.8-0.2-1.2-0.4s-0.8-0.4-1.1-0.6c-0.3-0.2-0.6-0.6-0.8-0.9c-0.2-0.4-0.3-0.8-0.3-1.3c0-0.6,0.1-1.1,0.4-1.5
			c0.3-0.4,0.6-0.8,1-1.1s0.9-0.5,1.4-0.6s1-0.2,1.5-0.2c0.6,0,1.2,0.1,1.7,0.2c0.5,0.1,1,0.3,1.5,0.6s0.8,0.7,1,1.1
			c0.2,0.5,0.4,1,0.4,1.7h-2.4c0-0.3-0.1-0.6-0.2-0.8c-0.1-0.2-0.3-0.4-0.5-0.5c-0.2-0.1-0.4-0.2-0.7-0.3c-0.3-0.1-0.5-0.1-0.9-0.1
			c-0.2,0-0.4,0-0.6,0.1c-0.2,0-0.4,0.1-0.6,0.2c-0.2,0.1-0.3,0.2-0.4,0.4c-0.1,0.2-0.2,0.4-0.2,0.6c0,0.2,0,0.4,0.1,0.5
			c0.1,0.1,0.3,0.3,0.5,0.4c0.2,0.1,0.6,0.2,1,0.4s1,0.3,1.7,0.4c0.2,0,0.5,0.1,0.9,0.2c0.4,0.1,0.8,0.3,1.1,0.5
			c0.4,0.2,0.7,0.6,1,1c0.3,0.4,0.4,0.9,0.4,1.6c0,0.5-0.1,1-0.3,1.5c-0.2,0.4-0.5,0.8-0.9,1.2c-0.4,0.3-0.9,0.6-1.5,0.8
			c-0.6,0.2-1.3,0.3-2.1,0.3c-0.6,0-1.2-0.1-1.8-0.2c-0.6-0.2-1.1-0.4-1.6-0.7c-0.5-0.3-0.8-0.8-1.1-1.3c-0.3-0.5-0.4-1.1-0.4-1.8
			h2.4C329.4,440.9,329.4,441.3,329.6,441.5z"/>
		<path d="M342.5,436.1v1.5h-1.7v4.1c0,0.4,0.1,0.6,0.2,0.8c0.1,0.1,0.4,0.2,0.8,0.2c0.1,0,0.2,0,0.4,0c0.1,0,0.2,0,0.3,0v1.8
			c-0.2,0-0.4,0.1-0.6,0.1c-0.2,0-0.5,0-0.7,0c-0.4,0-0.7,0-1-0.1s-0.6-0.1-0.8-0.3c-0.2-0.1-0.4-0.3-0.6-0.6s-0.2-0.6-0.2-1v-4.9
			h-1.4v-1.5h1.4v-2.5h2.3v2.5H342.5z"/>
		<path d="M343.7,438.6c0-0.5,0.2-1,0.4-1.3c0.2-0.4,0.5-0.6,0.9-0.8c0.4-0.2,0.8-0.4,1.2-0.5c0.5-0.1,0.9-0.1,1.4-0.1
			c0.4,0,0.8,0,1.3,0.1s0.8,0.2,1.2,0.3c0.4,0.2,0.6,0.4,0.9,0.7c0.2,0.3,0.3,0.7,0.3,1.2v4.3c0,0.4,0,0.7,0.1,1.1
			c0,0.3,0.1,0.6,0.2,0.8h-2.3c0-0.1-0.1-0.3-0.1-0.4c0-0.1,0-0.3-0.1-0.4c-0.4,0.4-0.8,0.6-1.3,0.8c-0.5,0.1-1,0.2-1.5,0.2
			c-0.4,0-0.8,0-1.1-0.1c-0.3-0.1-0.6-0.2-0.9-0.4c-0.3-0.2-0.5-0.5-0.6-0.8c-0.1-0.3-0.2-0.7-0.2-1.1c0-0.5,0.1-0.9,0.2-1.2
			s0.4-0.5,0.6-0.7c0.3-0.2,0.6-0.3,0.9-0.4s0.7-0.2,1-0.2c0.3-0.1,0.7-0.1,1-0.1c0.3,0,0.6-0.1,0.9-0.1c0.3-0.1,0.5-0.2,0.6-0.3
			c0.1-0.1,0.2-0.3,0.2-0.5c0-0.2,0-0.4-0.1-0.6c-0.1-0.1-0.2-0.3-0.3-0.3c-0.1-0.1-0.3-0.1-0.5-0.2c-0.2,0-0.4,0-0.6,0
			c-0.4,0-0.8,0.1-1.1,0.3c-0.3,0.2-0.4,0.5-0.4,1H343.7z M349,440.3c-0.1,0.1-0.2,0.2-0.4,0.2c-0.1,0-0.3,0.1-0.5,0.1
			c-0.2,0-0.3,0.1-0.5,0.1c-0.2,0-0.4,0-0.5,0.1c-0.2,0-0.3,0.1-0.5,0.1c-0.2,0.1-0.3,0.1-0.4,0.2c-0.1,0.1-0.2,0.2-0.3,0.3
			c-0.1,0.1-0.1,0.3-0.1,0.5c0,0.2,0,0.4,0.1,0.5c0.1,0.1,0.2,0.2,0.3,0.3s0.3,0.1,0.4,0.2c0.2,0,0.3,0,0.5,0c0.4,0,0.8-0.1,1-0.2
			s0.4-0.3,0.5-0.5s0.2-0.4,0.2-0.6c0-0.2,0-0.4,0-0.5V440.3z"/>
		<path d="M357.6,436.1v1.5H356v4.1c0,0.4,0.1,0.6,0.2,0.8c0.1,0.1,0.4,0.2,0.8,0.2c0.1,0,0.2,0,0.4,0c0.1,0,0.2,0,0.3,0v1.8
			c-0.2,0-0.4,0.1-0.6,0.1c-0.2,0-0.5,0-0.7,0c-0.4,0-0.7,0-1-0.1s-0.6-0.1-0.8-0.3c-0.2-0.1-0.4-0.3-0.6-0.6s-0.2-0.6-0.2-1v-4.9
			h-1.4v-1.5h1.4v-2.5h2.3v2.5H357.6z"/>
		<path d="M361.2,442.4c0.3,0.3,0.8,0.5,1.5,0.5c0.5,0,0.9-0.1,1.2-0.3c0.3-0.2,0.5-0.5,0.6-0.7h2c-0.3,1-0.8,1.7-1.5,2.1
			s-1.5,0.6-2.4,0.6c-0.7,0-1.2-0.1-1.8-0.3c-0.5-0.2-1-0.5-1.3-0.9c-0.4-0.4-0.6-0.8-0.8-1.4s-0.3-1.1-0.3-1.8
			c0-0.6,0.1-1.2,0.3-1.7c0.2-0.5,0.5-1,0.9-1.4c0.4-0.4,0.8-0.7,1.3-0.9c0.5-0.2,1.1-0.3,1.7-0.3c0.7,0,1.3,0.1,1.8,0.4
			c0.5,0.3,1,0.6,1.3,1.1c0.3,0.5,0.6,1,0.7,1.6s0.2,1.2,0.2,1.8h-6C360.6,441.5,360.8,442,361.2,442.4z M363.7,438
			c-0.3-0.3-0.7-0.4-1.2-0.4c-0.4,0-0.7,0.1-0.9,0.2c-0.2,0.1-0.4,0.3-0.6,0.5c-0.1,0.2-0.2,0.4-0.3,0.6c-0.1,0.2-0.1,0.4-0.1,0.5
			h3.7C364.2,438.7,364,438.3,363.7,438z"/>
		<path d="M369.9,442.3c0.1,0.2,0.2,0.3,0.4,0.4s0.3,0.2,0.6,0.2s0.4,0.1,0.6,0.1c0.2,0,0.3,0,0.5-0.1c0.2,0,0.3-0.1,0.5-0.2
			c0.1-0.1,0.3-0.2,0.4-0.3c0.1-0.1,0.1-0.3,0.1-0.5c0-0.3-0.2-0.6-0.7-0.8c-0.5-0.2-1.1-0.3-1.9-0.5c-0.3-0.1-0.7-0.2-1-0.3
			c-0.3-0.1-0.6-0.2-0.8-0.4s-0.4-0.4-0.6-0.6s-0.2-0.6-0.2-0.9c0-0.5,0.1-1,0.3-1.3c0.2-0.3,0.5-0.6,0.8-0.8
			c0.3-0.2,0.7-0.3,1.2-0.4c0.4-0.1,0.9-0.1,1.3-0.1s0.9,0,1.3,0.1c0.4,0.1,0.8,0.2,1.1,0.4c0.3,0.2,0.6,0.5,0.8,0.8
			s0.3,0.8,0.4,1.3h-2.2c0-0.4-0.2-0.7-0.5-0.9c-0.3-0.2-0.7-0.2-1.1-0.2c-0.1,0-0.3,0-0.4,0c-0.1,0-0.3,0.1-0.4,0.1
			c-0.1,0.1-0.2,0.1-0.3,0.2c-0.1,0.1-0.1,0.2-0.1,0.4c0,0.2,0.1,0.4,0.2,0.5c0.1,0.1,0.3,0.2,0.6,0.3c0.2,0.1,0.5,0.2,0.8,0.2
			c0.3,0.1,0.6,0.1,0.9,0.2c0.3,0.1,0.7,0.2,1,0.3s0.6,0.2,0.8,0.4c0.2,0.2,0.4,0.4,0.6,0.7c0.1,0.3,0.2,0.6,0.2,1
			c0,0.5-0.1,1-0.3,1.4s-0.5,0.7-0.9,0.9c-0.4,0.2-0.8,0.4-1.2,0.5c-0.5,0.1-0.9,0.1-1.4,0.1c-0.5,0-0.9,0-1.4-0.1
			c-0.5-0.1-0.9-0.3-1.2-0.5s-0.7-0.5-0.9-0.9s-0.4-0.8-0.4-1.4h2.2C369.7,441.9,369.8,442.1,369.9,442.3z"/>
	</g>
</g>
<g>
	<rect x="286.5" y="291.3" class="st2" width="74.4" height="133.9"/>
	<g>
		<g>
			<path class="st0" d="M316.5,305.3l-0.4,2.5l0,0c0.3-0.3,0.6-0.5,1-0.6c0.3-0.1,0.7-0.2,1.2-0.2c0.5,0,1,0.1,1.4,0.3
				c0.4,0.2,0.8,0.5,1,0.8c0.3,0.3,0.5,0.7,0.6,1.2c0.1,0.4,0.2,0.9,0.2,1.4c0,0.6-0.1,1.1-0.3,1.6s-0.5,0.9-0.9,1.2
				s-0.8,0.6-1.3,0.8s-1,0.3-1.5,0.3c-0.5,0-1-0.1-1.5-0.2s-0.9-0.4-1.3-0.6s-0.7-0.6-0.9-1.1s-0.3-0.9-0.3-1.5h2.2
				c0.1,0.5,0.2,0.9,0.6,1.2c0.3,0.3,0.7,0.4,1.2,0.4c0.3,0,0.5-0.1,0.8-0.2c0.2-0.1,0.4-0.3,0.6-0.5s0.3-0.4,0.4-0.7
				c0.1-0.3,0.1-0.5,0.1-0.8c0-0.3,0-0.5-0.1-0.8c-0.1-0.2-0.2-0.5-0.4-0.6c-0.2-0.2-0.4-0.3-0.6-0.4c-0.2-0.1-0.5-0.2-0.8-0.2
				c-0.4,0-0.7,0.1-1,0.2c-0.2,0.1-0.5,0.4-0.7,0.7h-2l1.1-6h6v1.8H316.5z"/>
			<path class="st0" d="M325.3,311.9v2.4h-2.4v-2.4H325.3z"/>
			<path class="st0" d="M330.7,307.9c0.3,0,0.5-0.1,0.7-0.2c0.2-0.1,0.4-0.2,0.6-0.4s0.2-0.4,0.2-0.7c0-0.5-0.2-0.8-0.5-1.1
				s-0.7-0.4-1.1-0.4c-0.6,0-1,0.2-1.3,0.5c-0.3,0.4-0.4,0.8-0.4,1.4H327c0-0.6,0.1-1.1,0.3-1.5c0.2-0.5,0.4-0.9,0.8-1.2
				c0.3-0.3,0.7-0.6,1.2-0.8s1-0.3,1.5-0.3c0.4,0,0.9,0.1,1.3,0.2c0.4,0.1,0.8,0.3,1.2,0.6c0.3,0.3,0.6,0.6,0.8,0.9
				c0.2,0.4,0.3,0.8,0.3,1.3c0,0.5-0.1,1-0.4,1.4c-0.3,0.4-0.6,0.7-1.1,0.8v0c0.6,0.1,1.1,0.4,1.4,0.9c0.3,0.4,0.5,1,0.5,1.6
				c0,0.6-0.1,1.1-0.3,1.5s-0.5,0.8-0.9,1.1c-0.4,0.3-0.8,0.5-1.3,0.7c-0.5,0.2-1,0.2-1.5,0.2c-0.6,0-1.2-0.1-1.7-0.3
				s-0.9-0.4-1.3-0.8c-0.4-0.3-0.6-0.7-0.8-1.2s-0.3-1-0.3-1.7h2.1c0,0.3,0.1,0.6,0.1,0.8c0.1,0.3,0.2,0.5,0.4,0.7s0.3,0.3,0.6,0.5
				c0.2,0.1,0.5,0.2,0.8,0.2c0.5,0,0.9-0.2,1.2-0.5c0.3-0.3,0.5-0.7,0.5-1.2c0-0.4-0.1-0.7-0.2-0.9c-0.2-0.2-0.4-0.4-0.6-0.5
				c-0.2-0.1-0.5-0.2-0.8-0.2c-0.3,0-0.6,0-0.8,0v-1.5C330.2,307.9,330.4,307.9,330.7,307.9z"/>
		</g>
	</g>
</g>
<g>
	<g>
		<path d="M622.1,432.9v11.4h-2.5v-11.4H622.1z"/>
		<path d="M626.3,436.1v1.2h0c0.3-0.5,0.7-0.8,1.1-1c0.5-0.2,0.9-0.3,1.4-0.3c0.6,0,1.1,0.1,1.5,0.2c0.4,0.2,0.7,0.4,0.9,0.7
			c0.2,0.3,0.4,0.7,0.5,1.1c0.1,0.4,0.1,0.9,0.1,1.4v5.1h-2.3v-4.7c0-0.7-0.1-1.2-0.3-1.5c-0.2-0.3-0.6-0.5-1.1-0.5
			c-0.6,0-1.1,0.2-1.3,0.6c-0.3,0.4-0.4,1-0.4,1.8v4.3h-2.3v-8.3H626.3z"/>
		<path d="M639.6,443.3c-0.3,0.4-0.6,0.8-1,1c-0.4,0.2-0.9,0.3-1.5,0.3c-0.6,0-1.2-0.1-1.6-0.4c-0.5-0.2-0.9-0.6-1.2-1
			c-0.3-0.4-0.5-0.9-0.7-1.4c-0.2-0.5-0.2-1.1-0.2-1.7c0-0.6,0.1-1.1,0.2-1.6c0.2-0.5,0.4-1,0.7-1.4c0.3-0.4,0.7-0.7,1.1-1
			c0.5-0.2,1-0.4,1.6-0.4c0.5,0,1,0.1,1.4,0.3c0.4,0.2,0.8,0.5,1,0.9h0v-4.2h2.3v11.4h-2.2L639.6,443.3L639.6,443.3z M639.5,439.2
			c-0.1-0.3-0.2-0.6-0.3-0.8c-0.2-0.2-0.4-0.4-0.6-0.6s-0.6-0.2-0.9-0.2c-0.4,0-0.7,0.1-0.9,0.2s-0.5,0.3-0.6,0.6
			c-0.2,0.2-0.3,0.5-0.3,0.8s-0.1,0.6-0.1,1c0,0.3,0,0.6,0.1,1c0.1,0.3,0.2,0.6,0.4,0.9c0.2,0.3,0.4,0.5,0.6,0.6s0.6,0.2,0.9,0.2
			c0.4,0,0.7-0.1,0.9-0.2c0.3-0.1,0.5-0.3,0.6-0.6c0.1-0.3,0.3-0.5,0.3-0.9c0.1-0.3,0.1-0.7,0.1-1
			C639.6,439.8,639.6,439.5,639.5,439.2z"/>
		<path d="M643.7,434.8v-1.9h2.3v1.9H643.7z M646,436.1v8.3h-2.3v-8.3H646z"/>
		<path d="M647.8,438.6c0-0.5,0.2-1,0.4-1.3c0.2-0.4,0.5-0.6,0.9-0.8c0.4-0.2,0.8-0.4,1.2-0.5c0.5-0.1,0.9-0.1,1.4-0.1
			c0.4,0,0.8,0,1.3,0.1s0.8,0.2,1.2,0.3c0.4,0.2,0.6,0.4,0.9,0.7c0.2,0.3,0.3,0.7,0.3,1.2v4.3c0,0.4,0,0.7,0.1,1.1
			c0,0.3,0.1,0.6,0.2,0.8h-2.3c0-0.1-0.1-0.3-0.1-0.4c0-0.1,0-0.3-0.1-0.4c-0.4,0.4-0.8,0.6-1.3,0.8c-0.5,0.1-1,0.2-1.5,0.2
			c-0.4,0-0.8,0-1.1-0.1c-0.3-0.1-0.6-0.2-0.9-0.4c-0.3-0.2-0.5-0.5-0.6-0.8c-0.1-0.3-0.2-0.7-0.2-1.1c0-0.5,0.1-0.9,0.2-1.2
			s0.4-0.5,0.6-0.7c0.3-0.2,0.6-0.3,0.9-0.4s0.7-0.2,1-0.2c0.3-0.1,0.7-0.1,1-0.1c0.3,0,0.6-0.1,0.9-0.1c0.3-0.1,0.5-0.2,0.6-0.3
			c0.1-0.1,0.2-0.3,0.2-0.5c0-0.2,0-0.4-0.1-0.6c-0.1-0.1-0.2-0.3-0.3-0.3c-0.1-0.1-0.3-0.1-0.5-0.2c-0.2,0-0.4,0-0.6,0
			c-0.4,0-0.8,0.1-1.1,0.3c-0.3,0.2-0.4,0.5-0.4,1H647.8z M653,440.3c-0.1,0.1-0.2,0.2-0.4,0.2c-0.1,0-0.3,0.1-0.5,0.1
			c-0.2,0-0.3,0.1-0.5,0.1c-0.2,0-0.4,0-0.5,0.1c-0.2,0-0.3,0.1-0.5,0.1c-0.2,0.1-0.3,0.1-0.4,0.2c-0.1,0.1-0.2,0.2-0.3,0.3
			c-0.1,0.1-0.1,0.3-0.1,0.5c0,0.2,0,0.4,0.1,0.5c0.1,0.1,0.2,0.2,0.3,0.3s0.3,0.1,0.4,0.2c0.2,0,0.3,0,0.5,0c0.4,0,0.8-0.1,1-0.2
			s0.4-0.3,0.5-0.5s0.2-0.4,0.2-0.6c0-0.2,0-0.4,0-0.5V440.3z"/>
	</g>
</g>
<g>
	<rect x="600.2" y="377.2" class="st2" width="74.4" height="47.9"/>
	<g>
		<g>
			<path class="st0" d="M627.1,391.4c0.2-0.5,0.4-1,0.7-1.4c0.3-0.4,0.7-0.7,1.2-0.9c0.5-0.2,1.1-0.3,1.7-0.3c0.5,0,1,0.1,1.4,0.2
				c0.4,0.2,0.8,0.4,1.2,0.7c0.3,0.3,0.6,0.6,0.8,1.1c0.2,0.4,0.3,0.9,0.3,1.4c0,0.5-0.1,1-0.3,1.4c-0.2,0.4-0.4,0.7-0.7,1
				s-0.6,0.6-1,0.8s-0.7,0.5-1.1,0.7c-0.4,0.2-0.7,0.5-1.1,0.8c-0.3,0.3-0.7,0.6-0.9,1h5.1v1.9h-7.9c0-0.6,0.1-1.2,0.3-1.6
				c0.2-0.5,0.4-0.9,0.7-1.2c0.3-0.4,0.7-0.7,1.1-1c0.4-0.3,0.9-0.6,1.3-0.9c0.2-0.2,0.5-0.3,0.8-0.5c0.3-0.2,0.5-0.4,0.7-0.6
				c0.2-0.2,0.4-0.4,0.6-0.7c0.1-0.3,0.2-0.5,0.2-0.9c0-0.5-0.2-0.9-0.5-1.2c-0.3-0.3-0.7-0.4-1.2-0.4c-0.3,0-0.6,0.1-0.8,0.2
				c-0.2,0.1-0.4,0.3-0.5,0.6c-0.1,0.2-0.2,0.5-0.3,0.8s-0.1,0.6-0.1,0.9h-2.1C626.8,392.5,626.9,391.9,627.1,391.4z"/>
			<path class="st0" d="M638.7,397.4v2.4h-2.4v-2.4H638.7z"/>
			<path class="st0" d="M643.1,390.8l-0.4,2.5l0,0c0.3-0.3,0.6-0.5,1-0.6c0.3-0.1,0.7-0.2,1.2-0.2c0.5,0,1,0.1,1.4,0.3
				c0.4,0.2,0.8,0.5,1,0.8c0.3,0.3,0.5,0.7,0.6,1.2c0.1,0.4,0.2,0.9,0.2,1.4c0,0.6-0.1,1.1-0.3,1.6s-0.5,0.9-0.9,1.2
				s-0.8,0.6-1.3,0.8s-1,0.3-1.5,0.3c-0.5,0-1-0.1-1.5-0.2s-0.9-0.4-1.3-0.6s-0.7-0.6-0.9-1.1s-0.3-0.9-0.3-1.5h2.2
				c0.1,0.5,0.2,0.9,0.6,1.2c0.3,0.3,0.7,0.4,1.2,0.4c0.3,0,0.5-0.1,0.8-0.2c0.2-0.1,0.4-0.3,0.6-0.5s0.3-0.4,0.4-0.7
				c0.1-0.3,0.1-0.5,0.1-0.8c0-0.3,0-0.5-0.1-0.8c-0.1-0.2-0.2-0.5-0.4-0.6c-0.2-0.2-0.4-0.3-0.6-0.4c-0.2-0.1-0.5-0.2-0.8-0.2
				c-0.4,0-0.7,0.1-1,0.2c-0.2,0.1-0.5,0.4-0.7,0.7h-2l1.1-6h6v1.8H643.1z"/>
		</g>
	</g>
</g>
<g>
	<g>
		<path d="M415.8,432.9c0.5,0,1,0.1,1.4,0.2c0.4,0.2,0.8,0.4,1.1,0.7c0.3,0.3,0.5,0.6,0.7,1c0.2,0.4,0.2,0.8,0.2,1.2
			c0,0.7-0.1,1.3-0.4,1.7c-0.3,0.5-0.7,0.9-1.4,1.1v0c0.3,0.1,0.6,0.2,0.8,0.4c0.2,0.2,0.4,0.4,0.5,0.6c0.1,0.2,0.2,0.5,0.3,0.8
			s0.1,0.6,0.1,0.9c0,0.2,0,0.4,0,0.6c0,0.2,0,0.5,0.1,0.8c0,0.3,0.1,0.5,0.1,0.7s0.1,0.4,0.3,0.6H417c-0.1-0.4-0.2-0.8-0.3-1.3
			s-0.1-1-0.1-1.4c-0.1-0.6-0.3-1-0.5-1.3s-0.7-0.4-1.4-0.4h-2.5v4.5h-2.5v-11.4H415.8z M414.9,438.1c0.6,0,1-0.1,1.3-0.4
			c0.3-0.3,0.4-0.7,0.4-1.2c0-0.6-0.1-1-0.4-1.2c-0.3-0.3-0.7-0.4-1.3-0.4h-2.8v3.2H414.9z"/>
		<path d="M423.3,442.4c0.3,0.3,0.8,0.5,1.5,0.5c0.5,0,0.9-0.1,1.2-0.3c0.3-0.2,0.5-0.5,0.6-0.7h2c-0.3,1-0.8,1.7-1.5,2.1
			s-1.5,0.6-2.4,0.6c-0.7,0-1.2-0.1-1.8-0.3c-0.5-0.2-1-0.5-1.3-0.9c-0.4-0.4-0.6-0.8-0.8-1.4s-0.3-1.1-0.3-1.8
			c0-0.6,0.1-1.2,0.3-1.7c0.2-0.5,0.5-1,0.9-1.4c0.4-0.4,0.8-0.7,1.3-0.9c0.5-0.2,1.1-0.3,1.7-0.3c0.7,0,1.3,0.1,1.8,0.4
			c0.5,0.3,1,0.6,1.3,1.1c0.3,0.5,0.6,1,0.7,1.6s0.2,1.2,0.2,1.8h-6C422.8,441.5,423,442,423.3,442.4z M425.9,438
			c-0.3-0.3-0.7-0.4-1.2-0.4c-0.4,0-0.7,0.1-0.9,0.2c-0.2,0.1-0.4,0.3-0.6,0.5c-0.1,0.2-0.2,0.4-0.3,0.6c-0.1,0.2-0.1,0.4-0.1,0.5
			h3.7C426.3,438.7,426.2,438.3,425.9,438z"/>
		<path d="M432.3,436.1v1.1h0c0.3-0.4,0.6-0.8,1.1-1c0.4-0.2,0.9-0.3,1.4-0.3c0.7,0,1.2,0.1,1.7,0.4c0.5,0.2,0.9,0.6,1.2,1
			c0.3,0.4,0.5,0.9,0.7,1.4c0.1,0.5,0.2,1.1,0.2,1.7c0,0.6-0.1,1.1-0.2,1.6c-0.1,0.5-0.4,1-0.7,1.4s-0.7,0.7-1.1,0.9
			c-0.5,0.2-1,0.4-1.6,0.4c-0.5,0-1-0.1-1.4-0.3c-0.4-0.2-0.8-0.5-1.1-0.9h0v3.9h-2.3v-11.2H432.3z M435.3,442.6
			c0.3-0.1,0.5-0.3,0.6-0.6s0.3-0.5,0.3-0.8c0.1-0.3,0.1-0.6,0.1-1c0-0.3,0-0.7-0.1-1s-0.2-0.6-0.3-0.9c-0.2-0.2-0.4-0.5-0.6-0.6
			c-0.3-0.2-0.6-0.2-0.9-0.2c-0.4,0-0.7,0.1-0.9,0.2s-0.5,0.4-0.6,0.6c-0.2,0.2-0.3,0.5-0.3,0.8c-0.1,0.3-0.1,0.7-0.1,1
			c0,0.3,0,0.7,0.1,1c0.1,0.3,0.2,0.6,0.3,0.8c0.2,0.2,0.4,0.4,0.6,0.6s0.6,0.2,0.9,0.2C434.7,442.9,435,442.8,435.3,442.6z"/>
		<path d="M445.6,444.3v-1.2h0c-0.3,0.5-0.7,0.8-1.1,1c-0.5,0.2-0.9,0.3-1.4,0.3c-0.6,0-1.1-0.1-1.5-0.2c-0.4-0.2-0.7-0.4-0.9-0.7
			c-0.2-0.3-0.4-0.7-0.5-1.1c-0.1-0.4-0.1-0.9-0.1-1.4v-5.1h2.3v4.7c0,0.7,0.1,1.2,0.3,1.5c0.2,0.3,0.6,0.5,1.1,0.5
			c0.6,0,1.1-0.2,1.3-0.6s0.4-1,0.4-1.8v-4.3h2.3v8.3H445.6z"/>
		<path d="M451.9,432.9v4.2h0c0.3-0.4,0.7-0.7,1.1-0.9s1-0.3,1.5-0.3c0.4,0,0.8,0.1,1.2,0.3c0.4,0.2,0.8,0.4,1.1,0.8
			c0.3,0.4,0.6,0.8,0.8,1.4c0.2,0.5,0.3,1.2,0.3,2c0,0.8-0.1,1.4-0.3,2c-0.2,0.5-0.5,1-0.8,1.4c-0.3,0.4-0.7,0.6-1.1,0.8
			c-0.4,0.2-0.8,0.3-1.2,0.3c-0.6,0-1.2-0.1-1.6-0.3c-0.5-0.2-0.8-0.5-1.1-1h0v1.1h-2.2v-11.4H451.9z M455.6,439.2
			c-0.1-0.3-0.2-0.6-0.4-0.8c-0.2-0.2-0.4-0.4-0.6-0.6c-0.2-0.1-0.5-0.2-0.9-0.2c-0.3,0-0.6,0.1-0.9,0.2c-0.2,0.1-0.4,0.3-0.6,0.6
			c-0.2,0.2-0.3,0.5-0.4,0.8c-0.1,0.3-0.1,0.7-0.1,1c0,0.3,0,0.7,0.1,1c0.1,0.3,0.2,0.6,0.4,0.8c0.2,0.2,0.4,0.4,0.6,0.6
			c0.2,0.1,0.5,0.2,0.9,0.2c0.3,0,0.6-0.1,0.9-0.2c0.2-0.1,0.4-0.3,0.6-0.6s0.3-0.5,0.4-0.8c0.1-0.3,0.1-0.7,0.1-1
			C455.7,439.9,455.6,439.5,455.6,439.2z"/>
		<path d="M461.8,432.9v11.4h-2.3v-11.4H461.8z"/>
		<path d="M463.7,434.8v-1.9h2.3v1.9H463.7z M466,436.1v8.3h-2.3v-8.3H466z"/>
		<path d="M471.7,437.6c-0.4,0-0.7,0.1-0.9,0.2c-0.2,0.2-0.4,0.4-0.6,0.6c-0.2,0.3-0.3,0.5-0.3,0.9c-0.1,0.3-0.1,0.6-0.1,0.9
			c0,0.3,0,0.6,0.1,0.9c0.1,0.3,0.2,0.6,0.3,0.8c0.1,0.3,0.3,0.5,0.6,0.6c0.2,0.2,0.5,0.2,0.9,0.2c0.5,0,1-0.2,1.3-0.5
			c0.3-0.3,0.5-0.7,0.6-1.2h2.2c-0.1,1.1-0.6,1.9-1.3,2.5s-1.6,0.9-2.7,0.9c-0.6,0-1.2-0.1-1.7-0.3c-0.5-0.2-1-0.5-1.3-0.9
			c-0.4-0.4-0.6-0.8-0.8-1.3c-0.2-0.5-0.3-1.1-0.3-1.7c0-0.6,0.1-1.2,0.3-1.8c0.2-0.5,0.5-1,0.8-1.4c0.4-0.4,0.8-0.7,1.3-0.9
			c0.5-0.2,1.1-0.3,1.8-0.3c0.5,0,1,0.1,1.4,0.2s0.9,0.3,1.2,0.6c0.4,0.3,0.6,0.6,0.9,1c0.2,0.4,0.4,0.9,0.4,1.4h-2.2
			C473.3,438,472.7,437.6,471.7,437.6z"/>
		<path d="M481.5,438.4c0.2-0.5,0.5-1,0.9-1.4c0.4-0.4,0.8-0.7,1.3-0.9s1.1-0.3,1.8-0.3s1.2,0.1,1.8,0.3c0.5,0.2,1,0.5,1.4,0.9
			s0.7,0.8,0.9,1.4c0.2,0.5,0.3,1.1,0.3,1.8s-0.1,1.3-0.3,1.8c-0.2,0.5-0.5,1-0.9,1.4s-0.8,0.7-1.4,0.9c-0.5,0.2-1.1,0.3-1.8,0.3
			s-1.2-0.1-1.8-0.3c-0.5-0.2-1-0.5-1.3-0.9c-0.4-0.4-0.7-0.8-0.9-1.4c-0.2-0.5-0.3-1.1-0.3-1.8S481.3,439,481.5,438.4z
			 M483.5,441.2c0.1,0.3,0.2,0.6,0.3,0.8c0.2,0.2,0.4,0.5,0.6,0.6s0.6,0.2,1,0.2s0.7-0.1,1-0.2c0.3-0.1,0.5-0.3,0.6-0.6
			c0.2-0.3,0.3-0.5,0.3-0.8c0.1-0.3,0.1-0.6,0.1-1s0-0.7-0.1-1c-0.1-0.3-0.2-0.6-0.3-0.8c-0.2-0.2-0.4-0.4-0.6-0.6
			c-0.3-0.2-0.6-0.2-1-0.2s-0.7,0.1-1,0.2s-0.5,0.4-0.6,0.6c-0.2,0.2-0.3,0.5-0.3,0.8c-0.1,0.3-0.1,0.6-0.1,1
			S483.5,440.9,483.5,441.2z"/>
		<path d="M490.3,437.6v-1.5h1.4v-0.6c0-0.7,0.2-1.3,0.7-1.8c0.5-0.5,1.2-0.7,2.1-0.7c0.2,0,0.4,0,0.6,0c0.2,0,0.4,0,0.6,0v1.7
			c-0.3,0-0.5,0-0.8,0c-0.3,0-0.5,0.1-0.7,0.2c-0.1,0.1-0.2,0.4-0.2,0.7v0.5h1.6v1.5h-1.6v6.8h-2.3v-6.8H490.3z"/>
		<path d="M508.5,436c-0.1-0.2-0.3-0.5-0.6-0.6s-0.5-0.3-0.8-0.4c-0.3-0.1-0.6-0.2-0.9-0.2c-0.6,0-1,0.1-1.4,0.3s-0.7,0.5-1,0.9
			c-0.2,0.4-0.4,0.8-0.5,1.3c-0.1,0.5-0.2,1-0.2,1.5c0,0.5,0.1,0.9,0.2,1.4s0.3,0.9,0.5,1.2c0.2,0.4,0.6,0.7,1,0.9s0.9,0.3,1.4,0.3
			c0.8,0,1.4-0.2,1.8-0.7c0.4-0.5,0.7-1.1,0.8-1.9h2.4c-0.1,0.7-0.2,1.4-0.5,1.9s-0.6,1.1-1.1,1.5c-0.4,0.4-1,0.7-1.5,0.9
			c-0.6,0.2-1.2,0.3-1.9,0.3c-0.9,0-1.7-0.2-2.4-0.5c-0.7-0.3-1.3-0.7-1.8-1.3c-0.5-0.5-0.8-1.2-1.1-1.9s-0.4-1.5-0.4-2.3
			c0-0.9,0.1-1.6,0.4-2.4s0.6-1.4,1.1-1.9c0.5-0.5,1.1-1,1.8-1.3c0.7-0.3,1.5-0.5,2.4-0.5c0.6,0,1.2,0.1,1.8,0.3
			c0.6,0.2,1.1,0.4,1.5,0.8s0.8,0.8,1.1,1.3c0.3,0.5,0.5,1.1,0.5,1.8h-2.4C508.8,436.5,508.7,436.2,508.5,436z"/>
		<path d="M512.7,438.6c0-0.5,0.2-1,0.4-1.3c0.2-0.4,0.5-0.6,0.9-0.8c0.4-0.2,0.8-0.4,1.2-0.5c0.5-0.1,0.9-0.1,1.4-0.1
			c0.4,0,0.8,0,1.3,0.1s0.8,0.2,1.2,0.3c0.4,0.2,0.6,0.4,0.9,0.7c0.2,0.3,0.3,0.7,0.3,1.2v4.3c0,0.4,0,0.7,0.1,1.1
			c0,0.3,0.1,0.6,0.2,0.8h-2.3c0-0.1-0.1-0.3-0.1-0.4c0-0.1,0-0.3-0.1-0.4c-0.4,0.4-0.8,0.6-1.3,0.8c-0.5,0.1-1,0.2-1.5,0.2
			c-0.4,0-0.8,0-1.1-0.1c-0.3-0.1-0.6-0.2-0.9-0.4c-0.3-0.2-0.5-0.5-0.6-0.8c-0.1-0.3-0.2-0.7-0.2-1.1c0-0.5,0.1-0.9,0.2-1.2
			s0.4-0.5,0.6-0.7c0.3-0.2,0.6-0.3,0.9-0.4s0.7-0.2,1-0.2c0.3-0.1,0.7-0.1,1-0.1c0.3,0,0.6-0.1,0.9-0.1c0.3-0.1,0.5-0.2,0.6-0.3
			c0.1-0.1,0.2-0.3,0.2-0.5c0-0.2,0-0.4-0.1-0.6c-0.1-0.1-0.2-0.3-0.3-0.3c-0.1-0.1-0.3-0.1-0.5-0.2c-0.2,0-0.4,0-0.6,0
			c-0.4,0-0.8,0.1-1.1,0.3c-0.3,0.2-0.4,0.5-0.4,1H512.7z M517.9,440.3c-0.1,0.1-0.2,0.2-0.4,0.2c-0.1,0-0.3,0.1-0.5,0.1
			c-0.2,0-0.3,0.1-0.5,0.1c-0.2,0-0.4,0-0.5,0.1c-0.2,0-0.3,0.1-0.5,0.1c-0.2,0.1-0.3,0.1-0.4,0.2c-0.1,0.1-0.2,0.2-0.3,0.3
			c-0.1,0.1-0.1,0.3-0.1,0.5c0,0.2,0,0.4,0.1,0.5c0.1,0.1,0.2,0.2,0.3,0.3s0.3,0.1,0.4,0.2c0.2,0,0.3,0,0.5,0c0.4,0,0.8-0.1,1-0.2
			s0.4-0.3,0.5-0.5s0.2-0.4,0.2-0.6c0-0.2,0-0.4,0-0.5V440.3z"/>
		<path d="M526.6,436.1v1.5h-1.7v4.1c0,0.4,0.1,0.6,0.2,0.8c0.1,0.1,0.4,0.2,0.8,0.2c0.1,0,0.2,0,0.4,0c0.1,0,0.2,0,0.3,0v1.8
			c-0.2,0-0.4,0.1-0.6,0.1c-0.2,0-0.5,0-0.7,0c-0.4,0-0.7,0-1-0.1s-0.6-0.1-0.8-0.3c-0.2-0.1-0.4-0.3-0.6-0.6s-0.2-0.6-0.2-1v-4.9
			h-1.4v-1.5h1.4v-2.5h2.3v2.5H526.6z"/>
		<path d="M532.6,436.1v1.5H531v4.1c0,0.4,0.1,0.6,0.2,0.8c0.1,0.1,0.4,0.2,0.8,0.2c0.1,0,0.2,0,0.4,0c0.1,0,0.2,0,0.3,0v1.8
			c-0.2,0-0.4,0.1-0.6,0.1c-0.2,0-0.5,0-0.7,0c-0.4,0-0.7,0-1-0.1s-0.6-0.1-0.8-0.3c-0.2-0.1-0.4-0.3-0.6-0.6s-0.2-0.6-0.2-1v-4.9
			h-1.4v-1.5h1.4v-2.5h2.3v2.5H532.6z"/>
		<path d="M536.2,432.9v11.4H534v-11.4H536.2z"/>
		<path d="M540.5,442.4c0.3,0.3,0.8,0.5,1.5,0.5c0.5,0,0.9-0.1,1.2-0.3c0.3-0.2,0.5-0.5,0.6-0.7h2c-0.3,1-0.8,1.7-1.5,2.1
			s-1.5,0.6-2.4,0.6c-0.7,0-1.2-0.1-1.8-0.3c-0.5-0.2-1-0.5-1.3-0.9c-0.4-0.4-0.6-0.8-0.8-1.4s-0.3-1.1-0.3-1.8
			c0-0.6,0.1-1.2,0.3-1.7c0.2-0.5,0.5-1,0.9-1.4c0.4-0.4,0.8-0.7,1.3-0.9c0.5-0.2,1.1-0.3,1.7-0.3c0.7,0,1.3,0.1,1.8,0.4
			c0.5,0.3,1,0.6,1.3,1.1c0.3,0.5,0.6,1,0.7,1.6s0.2,1.2,0.2,1.8h-6C540,441.5,540.2,442,540.5,442.4z M543.1,438
			c-0.3-0.3-0.7-0.4-1.2-0.4c-0.4,0-0.7,0.1-0.9,0.2c-0.2,0.1-0.4,0.3-0.6,0.5c-0.1,0.2-0.2,0.4-0.3,0.6c-0.1,0.2-0.1,0.4-0.1,0.5
			h3.7C543.6,438.7,543.4,438.3,543.1,438z"/>
		<path d="M551.7,434.2l0.4,1.2l-1.9,0.6l1.2,1.6l-1.1,0.8l-1.2-1.6l-1.1,1.6l-1.1-0.8l1.2-1.6l-1.9-0.6l0.4-1.2l1.8,0.7v-2h1.3v2
			L551.7,434.2z"/>
	</g>
</g>
<g>
	<polygon class="st3" points="456.1,263.9 454.6,271.5 456.5,282.4 453.3,288 454,302 457.1,301.7 456.5,291.9 460.7,289.5 
		464.9,302.1 467.6,301.3 465.5,291.8 469.3,285.7 480,285.5 477.4,300.8 480.9,301.2 485.4,290.1 487.3,302.6 490.9,300.7 
		491.5,291.7 493.5,287.1 500.8,287.2 506.8,293.7 509.6,295.1 511.8,293.4 510.8,287 510.5,283.8 511.3,280.5 508.2,281.4 
		508.9,277 506.1,279.8 504.7,279.1 491.6,263.9 459.4,263.4 	"/>
	<path d="M464.7,291.2c-0.1,0.2-0.2,0.5-0.1,0.7l2.2,8.5h-1.5l-3.7-10.4c0,0,0,0,0,0l4-3.3c0.3-0.2,0.6-0.3,0.9-0.3h1.6L464.7,291.2
		z M484.4,288.8C484.4,288.9,484.4,288.9,484.4,288.8l-4,11.5l-1.9,0l2.4-14h1.1c0.3,0,0.6,0.1,0.8,0.4L484.4,288.8z M511.5,286.8
		c0-0.2,0-0.4,0.1-0.6l0.1-0.3c0.2-0.6,0.2-1.3-0.1-1.8l-0.4-0.8l1.2-2.1c0.2-0.4,0.2-0.9,0-1.3c-0.2-0.4-0.7-0.7-1.2-0.7h0h0
		c-1.4,0.2-2.7,0.7-3.8,1.5c-0.3,0.2-0.4,0.6-0.3,0.9c0.1,0.3,0.4,0.6,0.7,0.7c0.2,0,0.5,0,0.7-0.2c0.6-0.4,1.2-0.7,1.9-0.9l-1,1.6
		h0c-0.2,0.3-0.2,0.6,0,0.9l0.7,1.2c0,0.1,0.1,0.2,0,0.3l-0.1,0.3v0c-0.2,0.5-0.3,1.1-0.2,1.6l1,5.9v0c0,0.1,0,0.2-0.1,0.3l-1.1,0.6
		h0c-0.1,0.1-0.3,0-0.4,0c-0.1-0.1-0.1-0.1-0.2-0.2c-1.5-0.7-2.8-1.6-4-2.7c-0.9-0.9-1.7-2-2.4-3.1c-0.7-1.2-1-2.6-1-4
		c0-0.2-0.1-0.5-0.3-0.6c-0.2-0.2-0.4-0.3-0.6-0.3c-0.5,0-0.9,0.4-0.9,0.9c0,0.8,0.1,1.6,0.3,2.4l-6-0.2c0,0-0.1,0-0.1,0h0
		c-0.8,0-1.4,0.5-1.7,1.2l-1.7,3.9c0,0.1-0.1,0.2-0.1,0.3l-0.4,10.7h-2l-1.3-12.8c0-0.2-0.1-0.3-0.2-0.4l-2.4-3.1h0
		c-0.6-0.7-1.4-1-2.2-1h-15.6c-0.7,0-1.5,0.3-2,0.7l-7.9,6.5c-0.2,0.2-0.3,0.4-0.3,0.7v9.5H454v-13.1c0-0.3,0.1-0.6,0.2-0.9l3.2-5.3
		c0.1-0.2,0.2-0.4,0.1-0.6l-1.9-10.2c0-0.3,0-0.5,0-0.8l1.5-6.6c1.1-0.3,2.3-0.4,3.5-0.3c0,0,0.1,0,0.1,0c4.4,0,16.2,0,23.3,0
		c2.4,0,4.3,0,5.3,0c1-0.1,1.9,0.4,2.5,1.2l12.6,14.9c0.2,0.2,0.4,0.3,0.6,0.3l1,0.1c0,0,0,0,0.1,0h0c0.4,0,0.7-0.2,0.8-0.5
		c0.2-0.6,0.6-1.1,1.1-1.4c0.2,0.1,0.4,0.2,0.6,0.2c0.5,0,0.9-0.4,0.9-0.9c0-0.5-0.3-0.9-0.7-1.2c-0.4-0.2-0.9-0.2-1.3,0
		c-0.8,0.5-1.4,1.2-1.9,2l-0.1,0l-12.4-14.6c-0.9-1.2-2.4-1.9-3.9-1.8h-28.4c-3.5-0.4-7,0.9-9.2,3.6c-2,2.5-2.2,5.3-2.2,7.8
		c0,0.8,0,1.7-0.1,2.5c-0.2,0.1-0.3,0.2-0.4,0.3l-0.1,0l0,0c-0.9,0.7-1.6,1.7-2,2.8c-0.3,0.8-0.3,1.7-0.2,2.5c0,0.3,0.1,0.7,0.2,1
		l0,0c0,0.2,0.1,0.4,0.1,0.6v0c0,0.4,0.3,0.8,0.7,0.9c0.1,0,0.3,0.1,0.4,0.1c0.5,0,0.9-0.3,1.2-0.6c0.2-0.1,0.4-0.3,0.6-0.4
		c0.3-0.1,0.6-0.3,0.9-0.5c1-0.9,1.7-2.2,1.8-3.6c0.1-0.5-0.3-0.9-0.8-1c-0.2,0-0.5,0-0.7,0.2c-0.2,0.1-0.3,0.4-0.3,0.6
		c-0.1,0.9-0.5,1.8-1.2,2.5c-0.2,0.1-0.4,0.2-0.6,0.3c-0.2,0.1-0.4,0.2-0.5,0.3v0c0-0.2-0.1-0.4-0.1-0.6c-0.1-0.6-0.1-1.2,0.1-1.8
		c0.3-0.8,0.7-1.4,1.3-1.9c0.3-0.2,0.5-0.4,0.8-0.6h0c0.2-0.1,0.4-0.3,0.4-0.6c0.2-1,0.2-2.1,0.2-3.2c0-2.2,0.2-4.6,1.8-6.7
		c0.6-0.7,1.3-1.3,2.1-1.8l-1.2,5.3c-0.1,0.5-0.1,1,0,1.5l1.9,9.9l-3,5c-0.3,0.5-0.5,1.2-0.5,1.8v13.5c0,0.8,0.6,1.4,1.4,1.4h2.9h0
		c0.8,0,1.4-0.6,1.4-1.4V293l2.2-1.8l3.7,10.1c0.2,0.5,0.7,0.8,1.2,0.8h2.5c0.4,0,0.8-0.2,1-0.5c0.2-0.3,0.3-0.7,0.2-1.1l-2.3-8.7
		l3.7-5.5h8.9l-2.4,14.3l0,0c-0.1,0.4,0,0.7,0.3,1c0.2,0.3,0.6,0.4,1,0.4h2.8c0.5,0,1-0.3,1.2-0.9l3.3-9.4l1.1,10.7h0
		c0,0.3,0.1,0.6,0.4,0.8c0.2,0.2,0.6,0.4,0.9,0.4h2.9c0.7,0,1.3-0.6,1.3-1.3l0.4-10.9l1.6-3.7c0-0.1,0.1-0.1,0.2-0.1l6.6,0.2
		c0.1,0.1,0.2,0.2,0.2,0.4c0,0.1,0.1,0.1,0.1,0.2l0,0c0.7,1.4,1.7,2.6,2.9,3.7c1.2,1.2,2.7,2.2,4.3,3c0.7,0.5,1.6,0.6,2.3,0.2
		l1.1-0.6h0c0.8-0.4,1.2-1.3,1-2.1L511.5,286.8z"/>
	<rect x="443.3" y="300.5" class="st4" width="74.4" height="124.7"/>
	<g>
		<g>
			<path d="M473,316.1l-0.4,2.5l0,0c0.3-0.3,0.6-0.5,1-0.6c0.3-0.1,0.7-0.2,1.2-0.2c0.5,0,1,0.1,1.4,0.3c0.4,0.2,0.8,0.5,1,0.8
				c0.3,0.3,0.5,0.7,0.6,1.2c0.1,0.4,0.2,0.9,0.2,1.4c0,0.6-0.1,1.1-0.3,1.6s-0.5,0.9-0.9,1.2s-0.8,0.6-1.3,0.8s-1,0.3-1.5,0.3
				c-0.5,0-1-0.1-1.5-0.2s-0.9-0.4-1.3-0.6s-0.7-0.6-0.9-1.1s-0.3-0.9-0.3-1.5h2.2c0.1,0.5,0.2,0.9,0.6,1.2c0.3,0.3,0.7,0.4,1.2,0.4
				c0.3,0,0.5-0.1,0.8-0.2c0.2-0.1,0.4-0.3,0.6-0.5s0.3-0.4,0.4-0.7c0.1-0.3,0.1-0.5,0.1-0.8c0-0.3,0-0.5-0.1-0.8
				c-0.1-0.2-0.2-0.5-0.4-0.6c-0.2-0.2-0.4-0.3-0.6-0.4c-0.2-0.1-0.5-0.2-0.8-0.2c-0.4,0-0.7,0.1-1,0.2c-0.2,0.1-0.5,0.4-0.7,0.7h-2
				l1.1-6h6v1.8H473z"/>
			<path d="M481.8,322.7v2.4h-2.4v-2.4H481.8z"/>
			<path d="M483.4,317c0.2-0.7,0.5-1.3,0.9-1.7c0.4-0.4,0.8-0.7,1.3-0.9s1-0.3,1.5-0.3c0.5,0,1.1,0.1,1.5,0.3
				c0.5,0.2,0.9,0.5,1.3,0.9c0.4,0.4,0.7,1,0.9,1.7c0.2,0.7,0.3,1.6,0.3,2.6c0,1.1-0.1,2-0.3,2.7c-0.2,0.7-0.5,1.3-0.9,1.7
				c-0.4,0.4-0.8,0.7-1.3,0.9c-0.5,0.2-1,0.3-1.5,0.3c-0.5,0-1-0.1-1.5-0.3s-0.9-0.5-1.3-0.9c-0.4-0.4-0.6-1-0.9-1.7
				c-0.2-0.7-0.3-1.6-0.3-2.7C483,318.6,483.1,317.7,483.4,317z M485.3,320.8c0,0.4,0.1,0.9,0.2,1.3c0.1,0.4,0.3,0.8,0.5,1
				c0.2,0.3,0.6,0.4,1,0.4c0.5,0,0.8-0.1,1-0.4c0.2-0.3,0.4-0.6,0.5-1s0.2-0.8,0.2-1.3c0-0.4,0-0.8,0-1.1c0-0.2,0-0.4,0-0.7
				c0-0.3,0-0.5-0.1-0.8c0-0.3-0.1-0.6-0.2-0.8c-0.1-0.3-0.2-0.5-0.3-0.7c-0.1-0.2-0.3-0.4-0.5-0.5s-0.5-0.2-0.8-0.2
				c-0.3,0-0.5,0.1-0.7,0.2c-0.2,0.1-0.4,0.3-0.5,0.5c-0.1,0.2-0.2,0.5-0.3,0.7c-0.1,0.3-0.1,0.5-0.2,0.8c0,0.3,0,0.5-0.1,0.8
				c0,0.3,0,0.5,0,0.7C485.2,320,485.2,320.3,485.3,320.8z"/>
		</g>
	</g>
	<g>
		<g>
			<path d="M507.1,278c0,0.2,0,0.4,0.1,0.5c0,0.1,0,0.2,0,0c0,0.3,0,0.5,0,0.8c0,0.2,0.2,0.6,0.2,0.7c0-0.1,0,0.2,0,0.2
				c0,0.1,0.1,0.2,0.1,0.3c0.2,0.8,1.1,1.3,1.8,1c0.8-0.2,1.2-1.1,1-1.8c0-0.2-0.1-0.4-0.1-0.5c-0.1-0.2-0.1-0.3-0.2-0.5
				c-0.1-0.2-0.1-0.2,0,0.1c0.1,0.5,0.1-0.1,0.1-0.2c0-0.2,0-0.4,0-0.5c0-0.2,0-0.2,0,0c-0.1-0.8-0.6-1.5-1.5-1.5
				C507.8,276.6,507,277.2,507.1,278L507.1,278z"/>
		</g>
	</g>
</g>
<g>
	<rect x="704.5" y="-1" class="st5" width="73.5" height="73.5"/>
	<path class="st6" d="M727.7,32.8c-0.1,0.5-0.3,1-0.7,1.4c-0.3,0.4-0.8,0.8-1.5,1.1c-0.7,0.3-1.5,0.4-2.6,0.4c-0.5,0-1-0.1-1.4-0.2
		c-0.5-0.1-0.9-0.3-1.3-0.6c-0.4-0.2-0.7-0.6-1-1c-0.3-0.4-0.4-0.9-0.5-1.4h2.6c0.1,0.5,0.4,0.8,0.7,1c0.4,0.2,0.8,0.3,1.2,0.3
		c0.7,0,1.3-0.2,1.6-0.7c0.3-0.4,0.5-1,0.5-1.7v-1.3h0c-0.3,0.5-0.7,0.9-1.2,1.1c-0.5,0.2-1.1,0.4-1.7,0.4c-0.7,0-1.3-0.1-1.9-0.4
		c-0.5-0.3-1-0.6-1.3-1c-0.3-0.4-0.6-1-0.7-1.5c-0.2-0.6-0.2-1.2-0.2-1.9c0-0.6,0.1-1.2,0.3-1.8c0.2-0.6,0.4-1.1,0.8-1.5
		c0.3-0.4,0.8-0.8,1.3-1.1c0.5-0.3,1.1-0.4,1.8-0.4c0.6,0,1.2,0.1,1.7,0.4c0.5,0.2,0.9,0.6,1.2,1.2h0v-1.3h2.5v9
		C727.8,31.8,727.8,32.3,727.7,32.8z M724.1,29.6c0.3-0.1,0.5-0.3,0.7-0.6c0.2-0.2,0.3-0.5,0.4-0.8c0.1-0.3,0.1-0.6,0.1-1
		c0-0.4,0-0.8-0.1-1.1c-0.1-0.4-0.2-0.7-0.4-0.9c-0.2-0.3-0.4-0.5-0.7-0.6c-0.3-0.2-0.6-0.2-1.1-0.2c-0.4,0-0.7,0.1-1,0.2
		c-0.3,0.1-0.5,0.4-0.7,0.6c-0.2,0.3-0.3,0.5-0.4,0.9c-0.1,0.3-0.1,0.7-0.1,1c0,0.3,0,0.7,0.1,1c0.1,0.3,0.2,0.7,0.4,0.9
		c0.2,0.3,0.4,0.5,0.7,0.7c0.3,0.2,0.6,0.3,1,0.3C723.4,29.8,723.8,29.7,724.1,29.6z"/>
	<path class="st6" d="M729.6,23.8c0.3-0.4,0.6-0.7,1-1c0.4-0.2,0.9-0.4,1.4-0.5c0.5-0.1,1.1-0.2,1.6-0.2c0.5,0,1,0,1.5,0.1
		c0.5,0.1,0.9,0.2,1.4,0.4c0.4,0.2,0.7,0.5,1,0.8c0.3,0.4,0.4,0.8,0.4,1.4v5c0,0.4,0,0.9,0.1,1.2c0,0.4,0.1,0.7,0.3,0.9h-2.7
		c-0.1-0.1-0.1-0.3-0.1-0.5c0-0.2-0.1-0.3-0.1-0.5c-0.4,0.4-0.9,0.7-1.5,0.9c-0.6,0.2-1.2,0.3-1.8,0.3c-0.5,0-0.9-0.1-1.3-0.2
		c-0.4-0.1-0.7-0.3-1-0.5c-0.3-0.2-0.5-0.5-0.7-0.9c-0.2-0.4-0.3-0.8-0.3-1.3c0-0.5,0.1-1,0.3-1.3c0.2-0.4,0.4-0.6,0.7-0.8
		c0.3-0.2,0.7-0.4,1-0.5c0.4-0.1,0.8-0.2,1.2-0.3c0.4-0.1,0.8-0.1,1.2-0.1c0.4,0,0.7-0.1,1-0.2c0.3-0.1,0.5-0.2,0.7-0.3
		c0.2-0.1,0.3-0.3,0.2-0.6c0-0.3,0-0.5-0.1-0.7c-0.1-0.2-0.2-0.3-0.4-0.4c-0.2-0.1-0.3-0.2-0.5-0.2c-0.2,0-0.4,0-0.7,0
		c-0.5,0-0.9,0.1-1.2,0.3c-0.3,0.2-0.5,0.6-0.5,1.1h-2.6C729.2,24.8,729.4,24.3,729.6,23.8z M734.9,27.6c-0.2,0.1-0.3,0.1-0.5,0.1
		c-0.2,0-0.4,0.1-0.6,0.1c-0.2,0-0.4,0.1-0.6,0.1c-0.2,0-0.4,0.1-0.6,0.1c-0.2,0.1-0.4,0.1-0.5,0.3c-0.1,0.1-0.3,0.2-0.3,0.4
		c-0.1,0.2-0.1,0.4-0.1,0.6c0,0.2,0,0.4,0.1,0.6c0.1,0.2,0.2,0.3,0.4,0.4c0.2,0.1,0.3,0.2,0.5,0.2c0.2,0,0.4,0.1,0.6,0.1
		c0.5,0,0.9-0.1,1.2-0.3c0.3-0.2,0.5-0.4,0.6-0.6c0.1-0.2,0.2-0.5,0.3-0.7c0-0.3,0-0.4,0-0.6v-1C735.2,27.4,735,27.5,734.9,27.6z"/>
	<path class="st6" d="M744.5,22.4v1.8h-1.9V29c0,0.4,0.1,0.7,0.2,0.9c0.1,0.1,0.5,0.2,0.9,0.2c0.1,0,0.3,0,0.4,0
		c0.1,0,0.3,0,0.4-0.1v2c-0.2,0-0.5,0.1-0.7,0.1c-0.3,0-0.5,0-0.8,0c-0.4,0-0.8,0-1.2-0.1c-0.4-0.1-0.7-0.2-1-0.3
		c-0.3-0.2-0.5-0.4-0.7-0.7c-0.2-0.3-0.2-0.7-0.2-1.2v-5.7h-1.6v-1.8h1.6v-2.9h2.6v2.9H744.5z"/>
	<path class="st6" d="M748,29.7c0.4,0.4,1,0.6,1.7,0.6c0.5,0,1-0.1,1.4-0.4c0.4-0.3,0.6-0.5,0.7-0.8h2.3c-0.4,1.2-0.9,2-1.7,2.5
		c-0.8,0.5-1.7,0.7-2.8,0.7c-0.8,0-1.4-0.1-2-0.4c-0.6-0.2-1.1-0.6-1.5-1c-0.4-0.4-0.8-1-1-1.6c-0.2-0.6-0.3-1.3-0.3-2
		c0-0.7,0.1-1.4,0.4-2c0.2-0.6,0.6-1.2,1-1.6c0.4-0.5,0.9-0.8,1.6-1.1c0.6-0.3,1.3-0.4,2-0.4c0.8,0,1.5,0.2,2.1,0.5
		c0.6,0.3,1.1,0.7,1.5,1.3c0.4,0.5,0.7,1.1,0.8,1.8c0.2,0.7,0.2,1.4,0.2,2.1h-6.9C747.3,28.7,747.6,29.4,748,29.7z M750.9,24.7
		c-0.3-0.3-0.8-0.5-1.4-0.5c-0.4,0-0.8,0.1-1,0.2c-0.3,0.1-0.5,0.3-0.7,0.5c-0.2,0.2-0.3,0.4-0.4,0.7c-0.1,0.2-0.1,0.4-0.1,0.6h4.3
		C751.5,25.5,751.3,25,750.9,24.7z"/>
	<path class="st6" d="M757.7,29.7c0.1,0.2,0.3,0.4,0.5,0.5c0.2,0.1,0.4,0.2,0.6,0.3c0.2,0.1,0.5,0.1,0.8,0.1c0.2,0,0.4,0,0.6-0.1
		c0.2,0,0.4-0.1,0.6-0.2c0.2-0.1,0.3-0.2,0.4-0.4c0.1-0.2,0.2-0.4,0.2-0.6c0-0.4-0.3-0.7-0.8-0.9c-0.5-0.2-1.3-0.4-2.2-0.6
		c-0.4-0.1-0.8-0.2-1.1-0.3c-0.4-0.1-0.7-0.3-1-0.5c-0.3-0.2-0.5-0.4-0.7-0.7c-0.2-0.3-0.3-0.6-0.3-1.1c0-0.6,0.1-1.1,0.4-1.5
		c0.2-0.4,0.6-0.7,1-0.9c0.4-0.2,0.8-0.4,1.3-0.5c0.5-0.1,1-0.1,1.5-0.1c0.5,0,1,0.1,1.5,0.1c0.5,0.1,0.9,0.3,1.3,0.5
		c0.4,0.2,0.7,0.6,1,0.9c0.3,0.4,0.4,0.9,0.5,1.5h-2.5c0-0.5-0.2-0.9-0.6-1c-0.4-0.2-0.8-0.3-1.2-0.3c-0.1,0-0.3,0-0.5,0
		c-0.2,0-0.3,0.1-0.5,0.1c-0.1,0.1-0.3,0.2-0.4,0.3c-0.1,0.1-0.1,0.3-0.1,0.5c0,0.2,0.1,0.4,0.3,0.6c0.2,0.2,0.4,0.3,0.7,0.4
		c0.3,0.1,0.6,0.2,1,0.3c0.4,0.1,0.7,0.2,1.1,0.2c0.4,0.1,0.8,0.2,1.1,0.3c0.4,0.1,0.7,0.3,1,0.5c0.3,0.2,0.5,0.5,0.7,0.8
		c0.2,0.3,0.3,0.7,0.3,1.1c0,0.6-0.1,1.2-0.4,1.6c-0.3,0.4-0.6,0.8-1,1c-0.4,0.3-0.9,0.4-1.4,0.6c-0.5,0.1-1.1,0.2-1.6,0.2
		c-0.6,0-1.1-0.1-1.6-0.2c-0.5-0.1-1-0.3-1.4-0.6c-0.4-0.3-0.8-0.6-1-1c-0.3-0.4-0.4-1-0.4-1.6h2.5
		C757.6,29.2,757.6,29.5,757.7,29.7z"/>
	<path class="st6" d="M720.8,39.9v1.7h0c0.2-0.6,0.6-1.1,1.2-1.4c0.6-0.4,1.2-0.5,1.9-0.5c0.7,0,1.2,0.1,1.7,0.3
		c0.5,0.2,0.8,0.4,1.1,0.7c0.3,0.3,0.5,0.7,0.6,1.2c0.1,0.5,0.2,1,0.2,1.5v6.2h-1.2v-6c0-0.4,0-0.8-0.1-1.1
		c-0.1-0.4-0.2-0.7-0.4-0.9c-0.2-0.3-0.4-0.5-0.8-0.6c-0.3-0.1-0.7-0.2-1.2-0.2c-0.5,0-0.9,0.1-1.3,0.3c-0.4,0.2-0.7,0.4-0.9,0.7
		c-0.3,0.3-0.5,0.6-0.6,1c-0.1,0.4-0.2,0.8-0.2,1.3v5.6h-1.2v-9.6H720.8z"/>
	<path class="st6" d="M735.9,40.1c0.6,0.3,1,0.6,1.4,1.1c0.4,0.5,0.7,1,0.9,1.6c0.2,0.6,0.3,1.3,0.3,2c0,0.7-0.1,1.4-0.3,2
		c-0.2,0.6-0.5,1.2-0.9,1.6c-0.4,0.5-0.9,0.8-1.4,1.1c-0.6,0.3-1.2,0.4-1.9,0.4c-0.7,0-1.4-0.1-1.9-0.4c-0.6-0.3-1-0.6-1.4-1.1
		c-0.4-0.5-0.7-1-0.9-1.6c-0.2-0.6-0.3-1.3-0.3-2c0-0.7,0.1-1.3,0.3-2c0.2-0.6,0.5-1.1,0.9-1.6c0.4-0.5,0.9-0.8,1.4-1.1
		c0.6-0.3,1.2-0.4,1.9-0.4C734.7,39.7,735.3,39.8,735.9,40.1z M732.5,41c-0.4,0.2-0.8,0.5-1.1,0.9c-0.3,0.4-0.5,0.8-0.6,1.3
		c-0.1,0.5-0.2,1-0.2,1.5c0,0.5,0.1,1,0.2,1.5c0.1,0.5,0.4,0.9,0.6,1.3c0.3,0.4,0.6,0.7,1.1,0.9c0.4,0.2,0.9,0.4,1.5,0.4
		c0.6,0,1-0.1,1.5-0.4c0.4-0.2,0.8-0.5,1.1-0.9c0.3-0.4,0.5-0.8,0.6-1.3c0.1-0.5,0.2-1,0.2-1.5c0-0.5-0.1-1-0.2-1.5
		c-0.1-0.5-0.4-0.9-0.6-1.3c-0.3-0.4-0.6-0.7-1.1-0.9c-0.4-0.2-0.9-0.4-1.5-0.4C733.4,40.6,732.9,40.8,732.5,41z"/>
	<path class="st6" d="M744.1,39.9v1h-1.9v6.5c0,0.4,0,0.7,0.2,0.9c0.1,0.2,0.4,0.3,0.8,0.4c0.3,0,0.7,0,1-0.1v1c-0.2,0-0.3,0-0.5,0
		c-0.2,0-0.3,0-0.5,0c-0.8,0-1.3-0.2-1.6-0.5c-0.3-0.3-0.5-0.9-0.4-1.7v-6.6h-1.7v-1h1.7v-2.9h1.2v2.9H744.1z"/>
	<path class="st6" d="M746.7,46.4c0.1,0.5,0.3,0.9,0.6,1.2c0.3,0.4,0.6,0.7,1,0.9c0.4,0.2,0.9,0.4,1.4,0.4c0.9,0,1.5-0.2,2-0.7
		c0.5-0.4,0.8-1,1-1.8h1.2c-0.2,1.1-0.7,1.9-1.4,2.5c-0.7,0.6-1.6,0.9-2.8,0.9c-0.8,0-1.4-0.1-2-0.4c-0.6-0.3-1-0.6-1.4-1.1
		c-0.3-0.5-0.6-1-0.8-1.6c-0.2-0.6-0.3-1.3-0.3-1.9c0-0.6,0.1-1.3,0.3-1.9c0.2-0.6,0.4-1.2,0.8-1.6c0.4-0.5,0.8-0.9,1.4-1.2
		c0.6-0.3,1.2-0.4,2-0.4c0.8,0,1.4,0.2,2,0.5c0.5,0.3,1,0.7,1.3,1.2c0.3,0.5,0.6,1.1,0.7,1.7c0.1,0.7,0.2,1.3,0.2,2h-7.4
		C746.5,45.5,746.6,45.9,746.7,46.4z M752.5,42.8c-0.1-0.4-0.3-0.8-0.6-1.1c-0.3-0.3-0.6-0.6-0.9-0.8c-0.4-0.2-0.8-0.3-1.3-0.3
		c-0.5,0-0.9,0.1-1.3,0.3c-0.4,0.2-0.7,0.4-0.9,0.8c-0.3,0.3-0.5,0.7-0.6,1.1c-0.2,0.4-0.3,0.8-0.3,1.3h6.2
		C752.7,43.6,752.7,43.2,752.5,42.8z"/>
	<path class="st6" d="M761.8,41.8c-0.1-0.3-0.3-0.5-0.6-0.7c-0.2-0.2-0.5-0.3-0.8-0.4c-0.3-0.1-0.6-0.1-0.9-0.1
		c-0.3,0-0.5,0-0.8,0.1c-0.3,0.1-0.5,0.1-0.7,0.3c-0.2,0.1-0.4,0.3-0.5,0.5c-0.1,0.2-0.2,0.5-0.2,0.8c0,0.3,0.1,0.5,0.2,0.7
		c0.1,0.2,0.3,0.3,0.5,0.5c0.2,0.1,0.4,0.2,0.7,0.3c0.2,0.1,0.5,0.1,0.7,0.2l1.6,0.4c0.3,0,0.7,0.1,1,0.3c0.3,0.1,0.6,0.3,0.9,0.5
		c0.3,0.2,0.5,0.5,0.6,0.8c0.2,0.3,0.2,0.7,0.2,1.1c0,0.5-0.1,1-0.4,1.3c-0.2,0.4-0.5,0.7-0.9,0.9c-0.4,0.2-0.8,0.4-1.2,0.5
		c-0.5,0.1-0.9,0.1-1.4,0.1c-1.1,0-2-0.3-2.7-0.8c-0.7-0.5-1.1-1.4-1.2-2.6h1.2c0.1,0.8,0.3,1.4,0.9,1.8c0.5,0.4,1.2,0.6,2,0.6
		c0.3,0,0.6,0,0.9-0.1c0.3-0.1,0.6-0.2,0.8-0.3c0.3-0.1,0.5-0.3,0.6-0.6c0.2-0.2,0.3-0.5,0.3-0.8c0-0.3-0.1-0.5-0.2-0.7
		c-0.1-0.2-0.3-0.4-0.5-0.5c-0.2-0.1-0.4-0.2-0.7-0.3c-0.3-0.1-0.5-0.2-0.8-0.2l-1.5-0.3c-0.4-0.1-0.7-0.2-1.1-0.3
		c-0.3-0.1-0.6-0.3-0.9-0.5c-0.2-0.2-0.4-0.4-0.6-0.7c-0.1-0.3-0.2-0.6-0.2-1c0-0.5,0.1-0.9,0.3-1.3c0.2-0.3,0.5-0.6,0.8-0.8
		c0.4-0.2,0.7-0.4,1.2-0.5c0.4-0.1,0.9-0.1,1.3-0.1c0.5,0,0.9,0.1,1.4,0.2c0.4,0.1,0.8,0.3,1.1,0.6c0.3,0.3,0.6,0.6,0.8,1
		c0.2,0.4,0.3,0.8,0.3,1.4H762C762,42.4,761.9,42.1,761.8,41.8z"/>
</g>
</svg>
